<svg width="46" height="42" viewBox="0 0 46 42" fill="none" xmlns="http://www.w3.org/2000/svg">
<path d="M23.0263 35.4514L22.7983 35.6794L22.5476 35.4514C11.7183 25.6253 4.55967 19.1278 4.55967 12.5391C4.55967 7.97942 7.97942 4.55967 12.5391 4.55967C16.05 4.55967 19.4698 6.8395 20.6781 9.94008H24.9186C26.1269 6.8395 29.5467 4.55967 33.0576 4.55967C37.6173 4.55967 41.037 7.97942 41.037 12.5391C41.037 19.1278 33.8783 25.6253 23.0263 35.4514ZM33.0576 0C29.0907 0 25.2834 1.84667 22.7983 4.74206C20.3133 1.84667 16.506 0 12.5391 0C5.5172 0 0 5.4944 0 12.5391C0 21.1341 7.75144 28.1788 19.4926 38.8256L22.7983 41.835L26.1041 38.8256C37.8452 28.1788 45.5967 21.1341 45.5967 12.5391C45.5967 5.4944 40.0795 0 33.0576 0Z" fill="#1A3E68"/>
</svg>
