<svg width="39" height="40" viewBox="0 0 39 40" fill="none" xmlns="http://www.w3.org/2000/svg">
<path d="M1.33379 3.62988C1.08259 3.84763 0.881391 4.11708 0.743976 4.41979C0.60656 4.7225 0.536169 5.05133 0.53762 5.38377V37.6923C0.53762 38.3043 0.780757 38.8913 1.21354 39.3241C1.64633 39.7569 2.23332 40 2.84537 40C3.45742 40 4.04441 39.7569 4.47719 39.3241C4.90998 38.8913 5.15312 38.3043 5.15312 37.6923V29.5613C9.54553 26.2689 13.2495 27.8074 18.7458 30.5228C21.867 32.0613 25.4267 33.8306 29.2845 33.8306C32.1153 33.8306 35.1077 32.8806 38.2039 30.1998C38.4532 29.9837 38.6532 29.7167 38.7905 29.4168C38.9279 29.117 38.9993 28.7911 39.0001 28.4613V5.38377C39.0002 4.94129 38.8731 4.50811 38.6339 4.13584C38.3947 3.76358 38.0535 3.46792 37.651 3.2841C37.2485 3.10029 36.8017 3.03606 36.3637 3.09907C35.9257 3.16208 35.5151 3.34967 35.1808 3.6395C30.4287 7.7569 26.6171 6.19917 20.792 3.31641C15.3822 0.627883 8.64743 -2.70489 1.33379 3.62988ZM34.3846 27.3574C29.9922 30.6517 26.2883 29.1093 20.792 26.3958C16.338 24.1842 10.986 21.538 5.15312 24.2054V6.47803C9.54553 3.18564 13.2495 4.72414 18.7458 7.43959C21.867 8.97809 25.4267 10.7474 29.2845 10.7474C31.0455 10.75 32.786 10.3687 34.3846 9.63003V27.3574Z" fill="#1A3E68"/>
</svg>
