<svg width="33" height="33" viewBox="0 0 33 33" fill="none" xmlns="http://www.w3.org/2000/svg">
<g clip-path="url(#clip0_959_114)">
<path d="M23.3772 1.24396L20.2577 4.36349L28.6366 12.7424L31.7561 9.62286C33.3674 8.01154 33.3674 5.40118 31.7561 3.78986L29.2166 1.24396C27.6053 -0.367371 24.995 -0.367371 23.3836 1.24396H23.3772ZM18.801 5.82013L3.77699 20.8506C3.10668 21.5209 2.61684 22.3524 2.34614 23.2611L0.0644947 31.0149C-0.0966381 31.5627 0.0516041 32.1492 0.451213 32.5488C0.850823 32.9484 1.43735 33.0967 1.97875 32.942L9.73247 30.6604C10.6413 30.3897 11.4727 29.8998 12.143 29.2295L27.1799 14.199L18.801 5.82013Z" fill="#1A3E68"/>
</g>
<defs>
<clipPath id="clip0_959_114">
<rect width="33" height="33" fill="white"/>
</clipPath>
</defs>
</svg>
