<svg width="43" height="44" viewBox="0 0 43 44" fill="none" xmlns="http://www.w3.org/2000/svg">
<path d="M24.7796 4.88836L28.1978 11.9858C28.6639 12.9738 29.9069 13.9214 30.9556 14.1029L37.1511 15.1715C41.1131 15.8571 42.0454 18.8412 39.1904 21.785L34.3738 26.7854C33.5581 27.6323 33.1114 29.2655 33.3639 30.4349L34.7429 36.625C35.8305 41.5246 33.3251 43.4199 29.1494 40.8592L23.3424 37.2904C22.2936 36.6452 20.5651 36.6452 19.4969 37.2904L13.6897 40.8592C9.53352 43.4199 7.00871 41.5045 8.09632 36.625L9.47525 30.4349C9.72773 29.2655 9.28104 27.6323 8.46533 26.7854L3.64877 21.785C0.813207 18.8412 1.72602 15.8571 5.68804 15.1715L11.8835 14.1029C12.9129 13.9214 14.1559 12.9738 14.622 11.9858L18.0403 4.88836C19.9047 1.03721 22.9345 1.03721 24.7796 4.88836Z" stroke="#1A3E68" stroke-width="2.58326" stroke-linecap="round" stroke-linejoin="round"/>
</svg>
