<svg width="27" height="27" viewBox="0 0 27 27" fill="none" xmlns="http://www.w3.org/2000/svg">
<path d="M26.1364 12.7636C26.1364 18.7895 22.9274 26.1367 13.2569 26.1367C5.98902 26.1849 0.0559318 20.3363 0 13.0685C0.0559318 5.80061 5.98902 -0.0479972 13.2569 0.000296946C16.2636 0.0114485 19.179 1.03438 21.5335 2.90434C21.6961 3.03724 21.7961 3.23193 21.8093 3.44158C21.8102 3.65371 21.7266 3.85746 21.577 4.00787C20.6318 4.87212 19.7303 5.78319 18.8763 6.73767C18.6278 7.01109 18.2115 7.04893 17.9179 6.82479C16.5764 5.83202 14.9395 5.32047 13.2715 5.37277C8.98115 5.37277 5.50316 8.85077 5.50316 13.1411C5.50316 17.4314 8.98115 20.9094 13.2715 20.9094C17.6275 20.9094 19.4716 19.0509 20.4299 15.7548H13.7942C13.3933 15.7548 13.0682 15.4297 13.0682 15.0288V11.1809C13.0682 10.7799 13.3933 10.4549 13.7942 10.4549H25.4104C25.7446 10.4527 26.0266 10.7033 26.0638 11.0357C26.1176 11.61 26.1419 12.1867 26.1364 12.7636Z" fill="#1A3E68"/>
</svg>
