<svg width="141" height="141" viewBox="0 0 141 141" fill="none" xmlns="http://www.w3.org/2000/svg">
<g clip-path="url(#clip0_411_144)">
<path d="M99.8744 23.4999C106.372 23.4999 111.36 28.4525 115.055 33.7811L116.307 35.667L117.452 37.547C117.817 38.158 118.163 38.769 118.498 39.3565C123.122 47.6226 127.146 58.415 129.808 69.0781C132.451 79.659 133.914 90.7099 132.98 99.399C132.04 108.123 127.546 117.5 117.499 117.5C108.487 117.5 101.384 112.682 95.615 107.977L89.0938 102.507C83.6711 98.0654 77.7374 93.9999 70.4994 93.9999C63.2614 93.9999 57.3218 98.0654 51.9109 102.507L45.3896 107.971C39.6086 112.682 32.5058 117.5 23.4994 117.5C13.4473 117.5 8.95288 108.123 8.01876 99.399C7.09051 90.704 8.54751 79.659 11.1913 69.0723C13.8526 58.415 17.877 47.6285 22.5006 39.3565L23.5464 37.5411L24.692 35.667L25.9434 33.7811C29.6388 28.4525 34.6266 23.4999 41.1244 23.4999C44.1206 23.4999 47.0993 24.2284 50.025 25.0861L53.5089 26.1554C54.0846 26.3316 54.6545 26.502 55.2244 26.6606C60.3063 28.1176 65.5056 29.3749 70.4994 29.3749C75.4931 29.3749 80.6925 28.1176 85.7744 26.6606L90.9738 25.092C93.8995 24.2284 96.8781 23.4999 99.8744 23.4999ZM49.9369 46.9999C46.0415 46.9999 42.3057 48.5473 39.5513 51.3017C36.7968 54.0562 35.2494 57.792 35.2494 61.6874C35.2494 65.5827 36.7968 69.3186 39.5513 72.073C42.3057 74.8274 46.0415 76.3749 49.9369 76.3749C53.8323 76.3749 57.5681 74.8274 60.3225 72.073C63.077 69.3186 64.6244 65.5827 64.6244 61.6874C64.6244 57.792 63.077 54.0562 60.3225 51.3017C57.5681 48.5473 53.8323 46.9999 49.9369 46.9999ZM91.0619 46.9999C89.5037 46.9999 88.0094 47.6189 86.9076 48.7206C85.8059 49.8224 85.1869 51.3167 85.1869 52.8749V55.8124H82.2494C80.6912 55.8124 79.1969 56.4314 78.0951 57.5331C76.9934 58.6349 76.3744 60.1292 76.3744 61.6874C76.3744 63.2455 76.9934 64.7399 78.0951 65.8416C79.1969 66.9434 80.6912 67.5624 82.2494 67.5624H85.1869V70.4999C85.1869 72.058 85.8059 73.5524 86.9076 74.6541C88.0094 75.7559 89.5037 76.3749 91.0619 76.3749C92.62 76.3749 94.1144 75.7559 95.2161 74.6541C96.3179 73.5524 96.9369 72.058 96.9369 70.4999V67.5624H99.8744C101.433 67.5624 102.927 66.9434 104.029 65.8416C105.13 64.7399 105.749 63.2455 105.749 61.6874C105.749 60.1292 105.13 58.6349 104.029 57.5331C102.927 56.4314 101.433 55.8124 99.8744 55.8124H96.9369V52.8749C96.9369 51.3167 96.3179 49.8224 95.2161 48.7206C94.1144 47.6189 92.62 46.9999 91.0619 46.9999ZM49.9369 58.7499C50.716 58.7499 51.4631 59.0594 52.014 59.6102C52.5649 60.1611 52.8744 60.9083 52.8744 61.6874C52.8744 62.4664 52.5649 63.2136 52.014 63.7645C51.4631 64.3154 50.716 64.6249 49.9369 64.6249C49.1578 64.6249 48.4106 64.3154 47.8598 63.7645C47.3089 63.2136 46.9994 62.4664 46.9994 61.6874C46.9994 60.9083 47.3089 60.1611 47.8598 59.6102C48.4106 59.0594 49.1578 58.7499 49.9369 58.7499Z" fill="#1A3E68"/>
</g>
<defs>
<clipPath id="clip0_411_144">
<rect width="141" height="141" fill="white"/>
</clipPath>
</defs>
</svg>
