<svg width="1224" height="415" viewBox="0 0 1224 415" fill="none" xmlns="http://www.w3.org/2000/svg">
<rect width="1224" height="415" rx="38" fill="#1A3E68"/>
<path d="M550.19 288.25C545.333 288.25 541.174 286.502 537.713 283.007C534.251 279.512 532.523 275.315 532.529 270.417V145.583C532.529 140.679 534.26 136.479 537.721 132.984C541.183 129.489 545.339 127.744 550.19 127.75H673.811C678.667 127.75 682.826 129.498 686.288 132.993C689.749 136.488 691.477 140.685 691.471 145.583V270.417C691.471 275.321 689.74 279.521 686.279 283.016C682.818 286.511 678.662 288.256 673.811 288.25H550.19ZM550.19 270.417H673.811V145.583H550.19V270.417ZM559.02 252.583H664.981L631.868 208L605.378 243.667L585.51 216.917L559.02 252.583Z" fill="#F1DAC4"/>
</svg>
