<svg width="133" height="133" viewBox="0 0 133 133" fill="none" xmlns="http://www.w3.org/2000/svg">
<g clip-path="url(#clip0_411_148)">
<path d="M88.6663 16.625C92.9069 16.6248 96.9872 18.245 100.073 21.1541C103.158 24.0633 105.015 28.0414 105.264 32.2747L105.291 33.25V88.6667H109.448C113.033 88.6667 115.987 91.3932 116.341 94.8844L116.375 95.5938V105.292C116.375 109.532 114.755 113.613 111.846 116.698C108.936 119.783 104.958 121.64 100.725 121.889L99.7497 121.917H44.333C40.0925 121.917 36.0121 120.297 32.9268 117.388C29.8415 114.478 27.9845 110.5 27.7357 106.267L27.708 105.292V49.875H18.0101C16.2952 49.8758 14.6409 49.2404 13.3675 48.0918C12.094 46.9433 11.2919 45.3631 11.1163 43.6572L11.083 42.9479V33.25C11.0828 29.0095 12.703 24.9291 15.6121 21.8438C18.5213 18.7585 22.4994 16.9015 26.7327 16.6527L27.708 16.625H88.6663ZM105.291 99.75H55.4163V105.292C55.4163 107.231 55.0838 109.099 54.4743 110.833H99.7497C101.219 110.833 102.629 110.249 103.668 109.21C104.707 108.171 105.291 106.761 105.291 105.292V99.75ZM66.4997 66.5H55.4163C54.0039 66.5016 52.6453 67.0424 51.6183 68.012C50.5912 68.9817 49.9731 70.3069 49.8903 71.7169C49.8076 73.1269 50.2663 74.5154 51.1729 75.5985C52.0795 76.6816 53.3654 77.3777 54.768 77.5445L55.4163 77.5833H66.4997C67.9121 77.5818 69.2707 77.0409 70.2978 76.0713C71.3248 75.1017 71.9429 73.7765 72.0257 72.3664C72.1084 70.9564 71.6497 69.568 70.7431 68.4848C69.8366 67.4017 68.5506 66.7056 67.148 66.5388L66.4997 66.5ZM77.583 44.3333H55.4163C53.9466 44.3333 52.5371 44.9172 51.4978 45.9564C50.4585 46.9957 49.8747 48.4053 49.8747 49.875C49.8747 51.3447 50.4585 52.7543 51.4978 53.7935C52.5371 54.8328 53.9466 55.4167 55.4163 55.4167H77.583C79.0527 55.4167 80.4623 54.8328 81.5016 53.7935C82.5408 52.7543 83.1247 51.3447 83.1247 49.875C83.1247 48.4053 82.5408 46.9957 81.5016 45.9564C80.4623 44.9172 79.0527 44.3333 77.583 44.3333ZM27.708 27.7083C26.2383 27.7083 24.8287 28.2922 23.7895 29.3315C22.7502 30.3707 22.1663 31.7803 22.1663 33.25V38.7917H27.708V27.7083Z" fill="#1A3E68"/>
</g>
<defs>
<clipPath id="clip0_411_148">
<rect width="133" height="133" fill="white"/>
</clipPath>
</defs>
</svg>
