<svg width="27" height="27" viewBox="0 0 27 27" fill="none" xmlns="http://www.w3.org/2000/svg">
<path fill-rule="evenodd" clip-rule="evenodd" d="M18.8763 0H7.2601C3.25046 0 0 3.25046 0 7.2601V18.8763C0 22.8859 3.25046 26.1364 7.2601 26.1364H18.8763C22.8859 26.1364 26.1364 22.8859 26.1364 18.8763V7.2601C26.1364 3.25046 22.8859 0 18.8763 0ZM23.5953 18.8763C23.5873 21.4792 21.4792 23.5873 18.8763 23.5953H7.2601C4.65714 23.5873 2.54901 21.4792 2.54104 18.8763V7.2601C2.54901 4.65714 4.65714 2.54901 7.2601 2.54104H18.8763C21.4792 2.54901 23.5873 4.65714 23.5953 7.2601V18.8763ZM19.9653 7.62311C20.7672 7.62311 21.4173 6.97301 21.4173 6.17109C21.4173 5.36916 20.7672 4.71907 19.9653 4.71907C19.1633 4.71907 18.5133 5.36916 18.5133 6.17109C18.5133 6.97301 19.1633 7.62311 19.9653 7.62311ZM13.0682 6.53409C9.45951 6.53409 6.53409 9.45951 6.53409 13.0682C6.53409 16.6769 9.45951 19.6023 13.0682 19.6023C16.6769 19.6023 19.6023 16.6769 19.6023 13.0682C19.6062 11.334 18.919 9.66983 17.6927 8.44361C16.4665 7.2174 14.8023 6.53023 13.0682 6.53409ZM9.07513 13.0682C9.07513 15.2735 10.8629 17.0612 13.0682 17.0612C15.2735 17.0612 17.0612 15.2735 17.0612 13.0682C17.0612 10.8629 15.2735 9.07513 13.0682 9.07513C10.8629 9.07513 9.07513 10.8629 9.07513 13.0682Z" fill="#1A3E68"/>
</svg>
