<svg width="27" height="27" viewBox="0 0 27 27" fill="none" xmlns="http://www.w3.org/2000/svg">
<path fill-rule="evenodd" clip-rule="evenodd" d="M2.90404 0H23.2323C24.8362 0 26.1364 1.30018 26.1364 2.90404V23.2323C26.1364 24.8362 24.8362 26.1364 23.2323 26.1364H2.90404C1.30018 26.1364 0 24.8362 0 23.2323V2.90404C0 1.30018 1.30018 0 2.90404 0ZM7.2601 21.7803C7.66106 21.7803 7.98611 21.4552 7.98611 21.0543V10.8902C7.98611 10.4892 7.66106 10.1641 7.2601 10.1641H5.08207C4.68111 10.1641 4.35606 10.4892 4.35606 10.8902V21.0543C4.35606 21.4552 4.68111 21.7803 5.08207 21.7803H7.2601ZM6.17109 8.71212C4.96819 8.71212 3.99306 7.73699 3.99306 6.53409C3.99306 5.33119 4.96819 4.35606 6.17109 4.35606C7.37398 4.35606 8.34912 5.33119 8.34912 6.53409C8.34912 7.73699 7.37398 8.71212 6.17109 8.71212ZM21.0543 21.7803C21.4552 21.7803 21.7803 21.4552 21.7803 21.0543V14.375C21.8275 12.0674 20.1215 10.0981 17.8308 9.81566C16.2292 9.66937 14.6775 10.4174 13.7942 11.7614V10.8902C13.7942 10.4892 13.4691 10.1641 13.0682 10.1641H10.8902C10.4892 10.1641 10.1641 10.4892 10.1641 10.8902V21.0543C10.1641 21.4552 10.4892 21.7803 10.8902 21.7803H13.0682C13.4691 21.7803 13.7942 21.4552 13.7942 21.0543V15.6092C13.7942 14.4064 14.7694 13.4312 15.9722 13.4312C17.1751 13.4312 18.1503 14.4064 18.1503 15.6092V21.0543C18.1503 21.4552 18.4754 21.7803 18.8763 21.7803H21.0543Z" fill="#1A3E68"/>
</svg>
