<svg width="164" height="90" viewBox="0 0 164 90" fill="none" xmlns="http://www.w3.org/2000/svg">
<g filter="url(#filter0_d_509_255)">
<rect x="6" y="27.3098" width="134.392" height="53.69" rx="20.3151" fill="#1A3E68"/>
<rect x="4.66609" y="25.9759" width="137.06" height="56.3578" rx="21.6491" stroke="#F1DAC4" stroke-width="2.66783" stroke-dasharray="6.53 6.53"/>
</g>
<path d="M22.7793 66.1586C22.065 66.1586 21.3963 66.0446 20.7732 65.8166C20.1653 65.5887 19.6258 65.2695 19.1547 64.8592C18.6987 64.4489 18.334 63.9625 18.0604 63.4002C17.7869 62.8531 17.6425 62.2528 17.6273 61.5993C17.6121 60.7482 17.7489 59.9884 18.0376 59.3197C18.3112 58.651 18.6759 58.0583 19.1319 57.5416C19.603 57.0248 20.1349 56.5917 20.7276 56.2422C21.3203 55.8774 21.9282 55.5811 22.5513 55.3531C22.217 55.1707 21.8978 54.9504 21.5939 54.692C21.3051 54.4336 21.0468 54.1449 20.8188 53.8257C20.5908 53.5066 20.4085 53.1722 20.2717 52.8227C20.1349 52.4732 20.0665 52.1236 20.0665 51.7741C20.0361 50.7102 20.2489 49.7452 20.7048 48.8789C21.1759 48.0127 21.7762 47.2756 22.5057 46.6677C23.2352 46.0446 24.0483 45.5659 24.9449 45.2315C25.8568 44.8972 26.7458 44.73 27.6121 44.73C28.1896 44.73 28.6835 44.8288 29.0939 45.0263C29.5042 45.2087 29.8386 45.4443 30.0969 45.733C30.3553 46.0066 30.5452 46.3105 30.6668 46.6449C30.8036 46.964 30.8796 47.2604 30.8948 47.5339C30.91 48.0355 30.8416 48.5446 30.6896 49.0613C30.5528 49.578 30.3705 50.0491 30.1425 50.4747C29.9297 50.885 29.6866 51.227 29.413 51.5005C29.1395 51.7589 28.8735 51.8881 28.6151 51.8881C28.4176 51.8881 28.2124 51.8577 27.9996 51.7969C27.8173 51.7513 27.6045 51.6753 27.3613 51.5689C27.1182 51.4625 26.875 51.3029 26.6319 51.0902C27.027 50.9382 27.3765 50.7254 27.6805 50.4519C27.9844 50.1631 28.2352 49.844 28.4328 49.4944C28.6455 49.1449 28.7975 48.7877 28.8887 48.423C28.9951 48.0431 29.0483 47.6859 29.0483 47.3516C29.0331 46.8653 28.9191 46.4929 28.7063 46.2346C28.4936 45.961 28.1516 45.8242 27.6805 45.8242C27.0422 45.8242 26.4039 45.9838 25.7656 46.3029C25.1273 46.6069 24.5574 47.04 24.0559 47.6023C23.5696 48.1494 23.182 48.8105 22.8933 49.5856C22.6197 50.3455 22.5285 51.1738 22.6197 52.0704C22.6957 52.7543 22.9009 53.3318 23.2352 53.8029C23.5847 54.2741 23.9115 54.6388 24.2154 54.8972C24.4586 54.8668 24.6866 54.844 24.8993 54.8288C25.1121 54.7984 25.3097 54.7832 25.492 54.7832C25.7504 54.7832 26.0088 54.8288 26.2671 54.92C26.5255 55.0112 26.6547 55.1403 26.6547 55.3075C26.6547 55.4291 26.6243 55.5659 26.5635 55.7178C26.5179 55.8698 26.4343 56.0142 26.3127 56.151C26.1911 56.2878 26.0468 56.4017 25.8796 56.4929C25.7124 56.5841 25.5148 56.6297 25.2869 56.6297C25.1045 56.6297 24.8841 56.5841 24.6258 56.4929C24.3674 56.4017 24.1091 56.2878 23.8507 56.151C23.2732 56.2726 22.7489 56.4929 22.2778 56.8121C21.8066 57.116 21.4039 57.4808 21.0695 57.9063C20.7504 58.3318 20.4996 58.7954 20.3173 59.2969C20.1349 59.7984 20.0513 60.2847 20.0665 60.7558C20.0817 61.1966 20.1501 61.6373 20.2717 62.078C20.3933 62.534 20.5832 62.9367 20.8416 63.2862C21.0999 63.6358 21.4343 63.9169 21.8446 64.1297C22.2702 64.3577 22.7793 64.4717 23.372 64.4717C23.8127 64.4717 24.2306 64.3729 24.6258 64.1753C25.0361 63.9929 25.4161 63.7574 25.7656 63.4686C26.1151 63.1799 26.4343 62.8607 26.723 62.5112C27.0118 62.1616 27.2626 61.8197 27.4753 61.4853C27.6881 61.151 27.8629 60.847 27.9996 60.5735C28.1516 60.2999 28.258 60.1023 28.3188 59.9808C28.3644 59.8896 28.4252 59.8212 28.5012 59.7756C28.5924 59.73 28.6759 59.7224 28.7519 59.7528C28.8431 59.768 28.9115 59.8212 28.9571 59.9124C29.0027 60.0036 29.0027 60.1403 28.9571 60.3227C28.8355 60.8698 28.6075 61.4777 28.2732 62.1464C27.9389 62.8303 27.5057 63.4686 26.9738 64.0613C26.4571 64.654 25.8416 65.1479 25.1273 65.5431C24.4282 65.9534 23.6455 66.1586 22.7793 66.1586ZM33.7671 61.1434C33.8583 61.2042 33.9723 61.2346 34.1091 61.2346C34.261 61.2346 34.4054 61.2042 34.5422 61.1434C34.6942 61.0826 34.831 60.999 34.9525 60.8926C35.0893 60.7862 35.1881 60.6495 35.2489 60.4823C35.3097 60.3151 35.3097 60.0795 35.2489 59.7756C35.1881 59.4564 35.0893 59.1221 34.9525 58.7726C34.831 58.4078 34.6942 58.0431 34.5422 57.6783C34.3902 57.3136 34.261 56.9792 34.1547 56.6753C34.0635 56.4473 33.9875 56.2346 33.9267 56.037C33.8659 55.8698 33.8051 55.7102 33.7443 55.5583C33.6987 55.3911 33.6607 55.2771 33.6303 55.2163C33.5544 55.3379 33.4176 55.5355 33.22 55.809C33.0376 56.0826 32.8325 56.3713 32.6045 56.6753C32.3917 56.964 32.1866 57.2376 31.989 57.496C31.7914 57.7391 31.6547 57.9063 31.5787 57.9975C31.4571 58.1343 31.3355 58.2178 31.2139 58.2482C31.1076 58.2634 31.0164 58.2406 30.9404 58.1799C30.8644 58.1039 30.8188 58.0051 30.8036 57.8835C30.8036 57.7467 30.8644 57.5871 30.986 57.4048C31.0772 57.2832 31.2139 57.0932 31.3963 56.8349C31.5787 56.5613 31.761 56.2878 31.9434 56.0142C32.1258 55.7254 32.293 55.4747 32.4449 55.2619C32.5969 55.034 32.6805 54.8972 32.6957 54.8516C32.7261 54.73 32.6805 54.5704 32.5589 54.3729C32.4525 54.1753 32.4373 53.9473 32.5133 53.689C32.5741 53.4762 32.7109 53.233 32.9237 52.9595C33.1364 52.6707 33.3872 52.4124 33.6759 52.1844C33.9647 51.9564 34.261 51.7893 34.565 51.6829C34.869 51.5613 35.1425 51.5613 35.3857 51.6829C35.5832 51.8045 35.7428 51.9412 35.8644 52.0932C35.986 52.23 36.0316 52.3744 36.0012 52.5264C35.9708 52.6023 35.9252 52.7011 35.8644 52.8227C35.8036 52.9443 35.7124 53.0963 35.5908 53.2786C35.4693 53.4458 35.2945 53.6662 35.0665 53.9397C35.1121 54.2893 35.1729 54.6084 35.2489 54.8972C35.3401 55.1859 35.4237 55.4367 35.4997 55.6495C35.5908 55.9078 35.6896 56.1434 35.796 56.3561C35.9328 56.6297 36.0772 56.9109 36.2291 57.1996C36.3811 57.4884 36.5179 57.7771 36.6395 58.0659C36.7611 58.3394 36.8598 58.5978 36.9358 58.8409C37.0118 59.0841 37.0346 59.2893 37.0042 59.4564C36.9586 59.7148 36.8218 60.0264 36.5939 60.3911C36.3811 60.7558 36.1076 61.113 35.7732 61.4625C35.4541 61.7969 35.0817 62.0856 34.6562 62.3288C34.2459 62.572 33.8127 62.6935 33.3568 62.6935C33.0376 62.6935 32.7261 62.5947 32.4221 62.3972C32.1334 62.1996 31.8826 61.9716 31.6699 61.7133C31.4723 61.4397 31.3203 61.1738 31.2139 60.9154C31.1227 60.6571 31.1151 60.4595 31.1911 60.3227C31.2823 60.1403 31.3659 59.996 31.4419 59.8896C31.5179 59.7832 31.6319 59.6616 31.7838 59.5248C31.8446 59.4792 31.9206 59.4261 32.0118 59.3653C32.0878 59.3197 32.1942 59.2741 32.331 59.2285C32.4677 59.1829 32.6273 59.1297 32.8097 59.0689C32.9617 59.54 33.0984 59.9124 33.22 60.1859C33.3416 60.4443 33.4404 60.6495 33.5164 60.8014C33.6076 60.9686 33.6911 61.0826 33.7671 61.1434ZM42.6349 61.1434C43.106 61.1434 43.6228 60.961 44.1851 60.5963C44.7626 60.2163 45.3173 59.7756 45.8492 59.2741C46.3963 58.7726 46.8902 58.2634 47.331 57.7467C47.7869 57.2148 48.1288 56.7893 48.3568 56.4701C48.4936 56.2726 48.6228 56.1586 48.7443 56.1282C48.8659 56.0826 48.9571 56.0978 49.0179 56.1738C49.0787 56.2498 49.1015 56.3713 49.0863 56.5385C49.0711 56.6905 49.0027 56.8653 48.8811 57.0628C48.7747 57.2452 48.5924 57.5112 48.334 57.8607C48.0908 58.195 47.7945 58.5674 47.445 58.9777C47.1106 59.3729 46.7231 59.7832 46.2823 60.2087C45.8568 60.6191 45.4085 60.999 44.9373 61.3485C44.4662 61.6829 43.9799 61.9565 43.4784 62.1692C42.9769 62.3972 42.4829 62.5112 41.9966 62.5112C41.3279 62.5112 40.7656 62.382 40.3097 62.1236C39.869 61.8805 39.5118 61.5613 39.2383 61.1662C38.9799 60.771 38.7975 60.3379 38.6911 59.8668C38.5848 59.3805 38.5316 58.9017 38.5316 58.4306C38.5316 57.9595 38.638 57.3744 38.8507 56.6753C39.0635 55.9762 39.375 55.3075 39.7854 54.6692C40.2109 54.0157 40.7428 53.461 41.3811 53.0051C42.0194 52.534 42.7717 52.2984 43.638 52.2984C44.1243 52.2984 44.5346 52.4656 44.869 52.7999C45.2185 53.1343 45.3857 53.5902 45.3705 54.1677C45.3705 54.4412 45.3249 54.7148 45.2337 54.9884C45.1425 55.2467 45.0209 55.4823 44.869 55.695C44.717 55.8926 44.5346 56.0522 44.3218 56.1738C44.1243 56.2954 43.9039 56.3561 43.6608 56.3561C43.4632 56.3561 43.3112 56.2878 43.2048 56.151C43.1136 55.999 43.0528 55.8318 43.0225 55.6495C43.0073 55.4519 43.0073 55.2619 43.0225 55.0795C43.0528 54.8972 43.0832 54.7756 43.1136 54.7148C43.1896 54.6084 43.2732 54.5324 43.3644 54.4868C43.4556 54.4412 43.562 54.3881 43.6835 54.3273C43.7747 54.2817 43.8431 54.2133 43.8887 54.1221C43.9495 54.0309 43.9799 53.9321 43.9799 53.8257C43.9799 53.7194 43.9495 53.6282 43.8887 53.5522C43.8279 53.4762 43.7291 53.4382 43.5924 53.4382C43.4556 53.4382 43.2048 53.5522 42.8401 53.7802C42.4905 53.9929 42.1258 54.3197 41.7459 54.7604C41.3811 55.1859 41.0544 55.7254 40.7656 56.3789C40.4769 57.0324 40.3249 57.7923 40.3097 58.6586C40.2945 59.1601 40.3629 59.5704 40.5149 59.8896C40.6668 60.2087 40.8568 60.4595 41.0848 60.6419C41.3127 60.8242 41.5635 60.9534 41.837 61.0294C42.1106 61.1054 42.3766 61.1434 42.6349 61.1434ZM46.3735 61.8045C46.2671 61.9716 46.1532 62.078 46.0316 62.1236C45.8948 62.1844 45.7808 62.192 45.6896 62.1464C45.5832 62.116 45.5149 62.04 45.4845 61.9185C45.4541 61.7969 45.4845 61.6449 45.5756 61.4625C45.6212 61.3713 45.7276 61.1662 45.8948 60.847C46.0468 60.5279 46.2367 60.1479 46.4647 59.7072C46.6775 59.2513 46.913 58.765 47.1714 58.2482C47.4298 57.7163 47.6729 57.2148 47.9009 56.7437C48.144 56.2726 48.3644 55.8546 48.562 55.4899C48.7595 55.1099 48.9039 54.8364 48.9951 54.6692C48.8279 54.5172 48.7139 54.4109 48.6532 54.3501C48.5924 54.2741 48.5468 54.1221 48.5164 53.8941C48.486 53.6966 48.5316 53.4382 48.6532 53.1191C48.7747 52.7999 48.9343 52.496 49.1319 52.2072C49.3295 51.9033 49.5498 51.6449 49.793 51.4321C50.0361 51.2194 50.2717 51.113 50.4997 51.113C50.9252 51.113 51.2216 51.2498 51.3887 51.5233C51.5711 51.7969 51.6775 52.078 51.7079 52.3668C51.7383 52.5643 51.7231 52.8151 51.6623 53.1191C51.6015 53.423 51.4875 53.6966 51.3203 53.9397C51.3659 53.9701 51.4267 54.0081 51.5027 54.0537C51.5787 54.0841 51.7003 54.0993 51.8674 54.0993C52.1106 54.0993 52.2778 54.0841 52.369 54.0537C52.4754 54.0233 52.6349 54.0081 52.8477 54.0081C53.1061 54.0081 53.3188 54.0765 53.486 54.2133C53.6532 54.3349 53.7899 54.4944 53.8963 54.692C54.0027 54.8744 54.0787 55.0795 54.1243 55.3075C54.1851 55.5203 54.2231 55.7178 54.2383 55.9002C54.2839 56.2802 54.1851 56.6753 53.9419 57.0856C53.6988 57.496 53.4024 57.9443 53.0529 58.4306C52.8401 58.7346 52.6273 59.0765 52.4146 59.4564C52.2018 59.8364 52.1106 60.1783 52.141 60.4823C52.1714 60.6799 52.2246 60.8394 52.3006 60.961C52.3766 61.0826 52.5893 61.1434 52.9389 61.1434C53.1972 61.1434 53.4784 61.0522 53.7823 60.8698C54.1015 60.6723 54.4206 60.4291 54.7398 60.1403C55.0741 59.8364 55.4009 59.5096 55.72 59.1601C56.0392 58.7954 56.3355 58.4458 56.6091 58.1115C56.8826 57.7619 57.1106 57.4504 57.293 57.1768C57.4906 56.9033 57.6349 56.7057 57.7261 56.5841C57.8021 56.4625 57.9009 56.3789 58.0225 56.3333C58.144 56.2878 58.2504 56.2878 58.3416 56.3333C58.4328 56.3789 58.486 56.4701 58.5012 56.6069C58.5316 56.7437 58.4784 56.9261 58.3416 57.154C58.2504 57.306 58.0909 57.5492 57.8629 57.8835C57.6501 58.2178 57.3842 58.5902 57.065 59.0005C56.7611 59.4109 56.4191 59.8364 56.0392 60.2771C55.6592 60.7027 55.2565 61.0978 54.831 61.4625C54.4206 61.8121 54.0027 62.1008 53.5772 62.3288C53.1668 62.5568 52.7717 62.6707 52.3918 62.6707C51.9966 62.6707 51.6699 62.5947 51.4115 62.4428C51.1532 62.2908 50.9404 62.1084 50.7732 61.8957C50.6212 61.6677 50.5073 61.4245 50.4313 61.1662C50.3705 60.8926 50.3477 60.6419 50.3629 60.4139C50.3781 60.2315 50.4237 60.0416 50.4997 59.844C50.5909 59.6312 50.6896 59.4185 50.796 59.2057C50.9176 58.9777 51.0392 58.7574 51.1608 58.5446C51.2975 58.3166 51.4191 58.0963 51.5255 57.8835C51.7839 57.4428 51.989 57.0704 52.141 56.7665C52.3082 56.4473 52.3918 56.1814 52.3918 55.9686C52.3918 55.8318 52.3614 55.7102 52.3006 55.6039C52.2398 55.4975 52.141 55.4443 52.0042 55.4443C51.913 55.4443 51.8447 55.4519 51.7991 55.4671C51.7687 55.4671 51.7307 55.4671 51.6851 55.4671C51.6547 55.4671 51.6015 55.4747 51.5255 55.4899C51.4647 55.4899 51.3659 55.4899 51.2291 55.4899C51.0316 55.4899 50.8644 55.4595 50.7276 55.3987C50.5909 55.3379 50.4617 55.2923 50.3401 55.2619C50.2793 55.3683 50.1425 55.5963 49.9298 55.9458C49.717 56.2954 49.4662 56.7057 49.1775 57.1768C48.9039 57.6479 48.6076 58.1419 48.2884 58.6586C47.9845 59.1753 47.6957 59.6616 47.4222 60.1175C47.1486 60.5583 46.9206 60.9382 46.7383 61.2574C46.5407 61.5613 46.4191 61.7437 46.3735 61.8045ZM67.0498 57.1768C66.5939 57.8455 66.0772 58.499 65.4997 59.1373C64.9222 59.7604 64.3067 60.3227 63.6532 60.8242C63.0149 61.3106 62.3538 61.7057 61.6699 62.0096C61.0012 62.3136 60.3477 62.4656 59.7094 62.4656C59.3751 62.4656 59.0103 62.382 58.6152 62.2148C58.2352 62.0628 57.8857 61.8197 57.5665 61.4853C57.2474 61.151 56.989 60.7178 56.7915 60.1859C56.6091 59.654 56.5559 59.0081 56.6319 58.2482C56.6927 57.6251 56.8827 56.9716 57.2018 56.2878C57.5361 55.5887 57.9389 54.9504 58.41 54.3729C58.8963 53.7953 59.4358 53.3166 60.0285 52.9367C60.6365 52.5567 61.2444 52.3668 61.8523 52.3668C62.4298 52.3668 62.8477 52.5112 63.1061 52.7999C63.3644 53.0887 63.4784 53.4458 63.448 53.8713C63.4024 54.3425 63.2656 54.7756 63.0377 55.1707C62.8249 55.5659 62.5665 55.923 62.2626 56.2422C61.9586 56.5613 61.6319 56.8501 61.2824 57.1084C60.948 57.3668 60.6289 57.6023 60.3249 57.8151C59.9906 58.0431 59.6714 58.2634 59.3675 58.4762C59.0635 58.6738 58.7975 58.8561 58.5696 59.0233C58.5848 59.4033 58.6532 59.7224 58.7747 59.9808C58.8963 60.2391 59.0483 60.4519 59.2307 60.6191C59.413 60.771 59.6182 60.885 59.8462 60.961C60.0893 61.0218 60.3325 61.0522 60.5757 61.0522C61.0924 61.0522 61.6319 60.8926 62.1942 60.5735C62.7565 60.2391 63.3036 59.844 63.8355 59.3881C64.3827 58.9169 64.8842 58.4306 65.3401 57.9291C65.8112 57.4276 66.1988 56.9944 66.5027 56.6297C66.6091 56.5081 66.7155 56.4397 66.8219 56.4245C66.9434 56.3941 67.0346 56.4093 67.0954 56.4701C67.1714 56.5157 67.2094 56.6069 67.2094 56.7437C67.2094 56.8653 67.1562 57.0096 67.0498 57.1768ZM61.214 53.6662C61.0316 53.6662 60.8112 53.7574 60.5529 53.9397C60.3097 54.1221 60.0665 54.3881 59.8234 54.7376C59.5802 55.0719 59.3523 55.4899 59.1395 55.9914C58.9267 56.4777 58.7672 57.04 58.6608 57.6783C58.8431 57.5416 59.0407 57.4048 59.2535 57.268C59.4662 57.116 59.679 56.9564 59.8918 56.7893C60.5453 56.2878 61.0012 55.847 61.2596 55.4671C61.5179 55.0871 61.6623 54.7604 61.6927 54.4868C61.7231 54.1981 61.6927 53.9929 61.6015 53.8713C61.5103 53.7346 61.3811 53.6662 61.214 53.6662ZM72.0878 57.8607C71.6927 58.4382 71.2824 59.0005 70.8568 59.5476C70.4465 60.0947 70.0438 60.5887 69.6486 61.0294C69.2687 61.4549 68.9115 61.7969 68.5772 62.0552C68.258 62.3288 67.9997 62.4656 67.8021 62.4656C67.331 62.4656 66.9434 62.2452 66.6395 61.8045C66.3507 61.3485 66.1228 60.7938 65.9556 60.1403C65.8036 59.4716 65.7048 58.765 65.6593 58.0203C65.6289 57.2604 65.6365 56.5841 65.682 55.9914C65.7428 55.3987 65.8112 54.9276 65.8872 54.578C65.9632 54.2133 66.0544 53.9321 66.1608 53.7346C66.2824 53.537 66.4191 53.3926 66.5711 53.3014C66.7383 53.2102 66.9434 53.1343 67.1866 53.0735C67.293 53.0431 67.4146 53.0203 67.5514 53.0051C67.6881 52.9899 67.8097 52.9975 67.9161 53.0279C68.0377 53.0431 68.1289 53.0887 68.1897 53.1647C68.2504 53.2406 68.258 53.3546 68.2124 53.5066C68.1821 53.6434 68.1289 53.8485 68.0529 54.1221C67.9921 54.3805 67.9237 54.6768 67.8477 55.0112C67.7717 55.3455 67.6957 55.695 67.6197 56.0598C67.559 56.4245 67.5134 56.7741 67.483 57.1084C67.4374 57.6859 67.4374 58.195 67.483 58.6358C67.5286 59.0613 67.5969 59.4261 67.6881 59.73C67.7793 60.0188 67.8781 60.2391 67.9845 60.3911C68.0909 60.5431 68.1745 60.6191 68.2352 60.6191C68.3112 60.6191 68.448 60.5203 68.6456 60.3227C68.8583 60.1099 69.0939 59.8364 69.3523 59.502C69.6258 59.1677 69.907 58.7802 70.1957 58.3394C70.4997 57.8987 70.7808 57.4428 71.0392 56.9716C70.948 56.7285 70.91 56.4397 70.9252 56.1054C70.9708 55.5887 71.0848 55.1251 71.2672 54.7148C71.4495 54.2893 71.6547 53.9321 71.8827 53.6434C72.1258 53.3546 72.369 53.1343 72.6121 52.9823C72.8705 52.8151 73.0985 52.7315 73.296 52.7315C73.6912 52.7315 73.9343 52.8379 74.0255 53.0507C74.1319 53.2482 74.1699 53.4534 74.1395 53.6662C74.1091 53.9853 73.9647 54.426 73.7064 54.9884C73.4632 55.5355 73.1441 56.1358 72.7489 56.7893C72.8249 56.8197 72.9085 56.8501 72.9997 56.8805C73.0909 56.9109 73.1973 56.9261 73.3188 56.9261C73.8356 56.9261 74.2991 56.8653 74.7094 56.7437C75.1349 56.6221 75.4997 56.4777 75.8036 56.3105C76.1228 56.1434 76.3887 55.9686 76.6015 55.7862C76.8295 55.5887 77.0118 55.4291 77.1486 55.3075C77.2398 55.2163 77.331 55.1707 77.4222 55.1707C77.5134 55.1707 77.5894 55.1935 77.6501 55.2391C77.7109 55.2847 77.7413 55.3531 77.7413 55.4443C77.7413 55.5355 77.6957 55.6343 77.6046 55.7406C77.0574 56.4093 76.3887 56.9488 75.5985 57.3592C74.8234 57.7695 73.9115 57.9747 72.8629 57.9747C72.7717 57.9747 72.6577 57.9671 72.521 57.9519C72.3842 57.9367 72.2398 57.9063 72.0878 57.8607ZM85.7201 57.1768C85.2641 57.8455 84.7474 58.499 84.1699 59.1373C83.5924 59.7604 82.9769 60.3227 82.3234 60.8242C81.6851 61.3106 81.024 61.7057 80.3401 62.0096C79.6714 62.3136 79.0179 62.4656 78.3796 62.4656C78.0453 62.4656 77.6805 62.382 77.2854 62.2148C76.9055 62.0628 76.5559 61.8197 76.2368 61.4853C75.9176 61.151 75.6593 60.7178 75.4617 60.1859C75.2793 59.654 75.2261 59.0081 75.3021 58.2482C75.3629 57.6251 75.5529 56.9716 75.872 56.2878C76.2064 55.5887 76.6091 54.9504 77.0802 54.3729C77.5666 53.7953 78.1061 53.3166 78.6988 52.9367C79.3067 52.5567 79.9146 52.3668 80.5225 52.3668C81.1 52.3668 81.5179 52.5112 81.7763 52.7999C82.0346 53.0887 82.1486 53.4458 82.1182 53.8713C82.0726 54.3425 81.9359 54.7756 81.7079 55.1707C81.4951 55.5659 81.2368 55.923 80.9328 56.2422C80.6289 56.5613 80.3021 56.8501 79.9526 57.1084C79.6182 57.3668 79.2991 57.6023 78.9951 57.8151C78.6608 58.0431 78.3416 58.2634 78.0377 58.4762C77.7337 58.6738 77.4678 58.8561 77.2398 59.0233C77.255 59.4033 77.3234 59.7224 77.445 59.9808C77.5666 60.2391 77.7185 60.4519 77.9009 60.6191C78.0833 60.771 78.2884 60.885 78.5164 60.961C78.7596 61.0218 79.0027 61.0522 79.2459 61.0522C79.7626 61.0522 80.3021 60.8926 80.8644 60.5735C81.4267 60.2391 81.9739 59.844 82.5058 59.3881C83.0529 58.9169 83.5544 58.4306 84.0103 57.9291C84.4815 57.4276 84.869 56.9944 85.1729 56.6297C85.2793 56.5081 85.3857 56.4397 85.4921 56.4245C85.6137 56.3941 85.7049 56.4093 85.7657 56.4701C85.8416 56.5157 85.8796 56.6069 85.8796 56.7437C85.8796 56.8653 85.8264 57.0096 85.7201 57.1768ZM79.8842 53.6662C79.7018 53.6662 79.4815 53.7574 79.2231 53.9397C78.9799 54.1221 78.7368 54.3881 78.4936 54.7376C78.2504 55.0719 78.0225 55.4899 77.8097 55.9914C77.597 56.4777 77.4374 57.04 77.331 57.6783C77.5134 57.5416 77.7109 57.4048 77.9237 57.268C78.1365 57.116 78.3492 56.9564 78.562 56.7893C79.2155 56.2878 79.6714 55.847 79.9298 55.4671C80.1881 55.0871 80.3325 54.7604 80.3629 54.4868C80.3933 54.1981 80.3629 53.9929 80.2717 53.8713C80.1805 53.7346 80.0514 53.6662 79.8842 53.6662ZM93.9495 44.7528C94.4815 44.7528 94.9146 44.9048 95.2489 45.2087C95.5985 45.4975 95.7505 46.0294 95.7049 46.8045C95.6897 47.0628 95.6289 47.5491 95.5225 48.2634C95.4161 48.9625 95.2869 49.7908 95.135 50.7482C94.983 51.7057 94.8082 52.7391 94.6106 53.8485C94.4283 54.9428 94.2535 56.0142 94.0863 57.0628H94.5651C94.717 57.0628 94.8842 57.0552 95.0666 57.04C95.2489 57.0248 95.4389 57.002 95.6365 56.9716C95.5605 57.154 95.4769 57.3288 95.3857 57.496C95.2945 57.6479 95.2033 57.7847 95.1122 57.9063C95.0058 58.0431 94.8994 58.1647 94.793 58.271C94.6562 58.4382 94.4967 58.5902 94.3143 58.727C94.1319 58.8485 93.9571 58.9473 93.79 59.0233C93.6836 59.768 93.5924 60.4367 93.5164 61.0294C93.4556 61.6069 93.4176 62.0856 93.4024 62.4656C93.372 63.0431 93.3872 63.5826 93.448 64.0841C93.4936 64.5248 93.5848 64.9732 93.7216 65.4291C93.8584 65.885 94.0787 66.2498 94.3827 66.5233L91.7383 67.3896C91.5559 67.1312 91.4192 66.7817 91.328 66.341C91.252 65.9154 91.1988 65.4899 91.1684 65.0644C91.1228 64.5628 91.1152 64.0461 91.1456 63.5142C91.176 62.9823 91.2596 62.2908 91.3964 61.4397C91.5331 60.5735 91.6851 59.6312 91.8523 58.613C91.5483 58.5218 91.214 58.4458 90.8492 58.385C90.4997 58.3242 90.1046 58.2938 89.6638 58.2938C89.2687 58.2938 88.8508 58.309 88.41 58.3394C87.9845 58.3698 87.559 58.4078 87.1334 58.4534C86.9511 59.1221 86.7687 59.8288 86.5863 60.5735C86.3888 61.3789 86.2064 62.0628 86.0392 62.6251C85.8872 63.2027 85.7353 63.6814 85.5833 64.0613C85.4465 64.4413 85.3021 64.7452 85.1501 64.9732C85.0134 65.2011 84.8614 65.3683 84.6942 65.4747C84.5119 65.5659 84.2839 65.6495 84.0103 65.7255C83.752 65.8014 83.4252 65.8774 83.0301 65.9534C82.6349 66.0294 82.1258 66.0902 81.5027 66.1358C81.7307 65.8622 81.9283 65.6115 82.0954 65.3835C82.2626 65.1555 82.4298 64.8744 82.597 64.54C82.7641 64.2057 82.9541 63.7726 83.1669 63.2406C83.3644 62.7239 83.6228 62.04 83.9419 61.189C84.0787 60.8394 84.2155 60.4595 84.3523 60.0492C84.5043 59.6236 84.6638 59.1905 84.831 58.7498C84.2839 58.8257 83.8204 58.8941 83.4404 58.9549C83.0605 59.0157 82.8325 59.0613 82.7565 59.0917C82.6349 59.1069 82.5362 59.1069 82.4602 59.0917C82.2626 59.0613 82.1562 58.9625 82.141 58.7954C82.1562 58.5826 82.2322 58.4382 82.369 58.3622C82.4906 58.2862 82.6805 58.195 82.9389 58.0887C83.0605 58.0279 83.3416 57.9215 83.7824 57.7695C84.2079 57.6023 84.7322 57.4276 85.3553 57.2452C85.5833 56.6069 85.8036 55.9762 86.0164 55.3531C86.2444 54.7148 86.4647 54.1069 86.6775 53.5294C86.8903 52.9519 87.0954 52.4124 87.293 51.9108C87.4906 51.3941 87.6729 50.9534 87.8401 50.5887C88.0985 50.0263 88.4252 49.4108 88.8204 48.7422C89.2307 48.0583 89.6942 47.42 90.2109 46.8273C90.7429 46.2346 91.3204 45.7406 91.9435 45.3455C92.5818 44.9504 93.2505 44.7528 93.9495 44.7528ZM93.6988 49.4944C93.866 48.8105 93.9799 48.2482 94.0407 47.8075C94.1015 47.3668 94.1243 47.0248 94.1091 46.7817C94.0939 46.5233 94.0407 46.3485 93.9495 46.2573C93.8736 46.151 93.7748 46.0978 93.6532 46.0978C93.4556 46.0978 93.2125 46.1738 92.9237 46.3257C92.635 46.4777 92.331 46.6981 92.0119 46.9868C91.6927 47.2604 91.3736 47.6099 91.0544 48.0355C90.7505 48.4458 90.4769 48.9169 90.2337 49.4488C89.8842 50.2391 89.4891 51.2118 89.0483 52.3668C88.6076 53.5066 88.1289 54.9656 87.6122 56.7437C87.9161 56.6981 88.2125 56.6601 88.5012 56.6297C88.8052 56.5993 89.1015 56.5841 89.3903 56.5841C89.907 56.5841 90.4009 56.6069 90.872 56.6525C91.3432 56.6829 91.7763 56.7209 92.1714 56.7665C92.3082 56.037 92.445 55.3227 92.5818 54.6236C92.7337 53.9093 92.8781 53.233 93.0149 52.5947C93.1517 51.9564 93.2733 51.3713 93.3796 50.8394C93.5012 50.3075 93.6076 49.8592 93.6988 49.4944ZM102.544 60.7102C102.377 60.9382 102.194 61.1662 101.997 61.3941C101.799 61.6221 101.586 61.8273 101.358 62.0096C101.13 62.192 100.887 62.3364 100.629 62.4428C100.371 62.5644 100.097 62.6251 99.8082 62.6251C99.0939 62.6251 98.5392 62.4808 98.1441 62.192C97.7489 61.9033 97.4526 61.5613 97.255 61.1662C97.0727 60.771 96.9663 60.3683 96.9359 59.958C96.8903 59.5324 96.8675 59.1905 96.8675 58.9321C96.8675 58.233 97.0043 57.5264 97.2778 56.8121C97.5514 56.0826 97.9161 55.4215 98.372 54.8288C98.828 54.2361 99.3447 53.7574 99.9222 53.3926C100.515 53.0127 101.115 52.8227 101.723 52.8227C102.103 52.8227 102.422 52.9063 102.681 53.0735C102.939 53.2254 103.152 53.4154 103.319 53.6434C103.486 53.8713 103.608 54.1145 103.684 54.3729C103.775 54.6312 103.836 54.8592 103.866 55.0567C103.896 54.8744 103.927 54.6844 103.957 54.4868C103.988 54.3197 104.018 54.1373 104.048 53.9397C104.079 53.7422 104.109 53.5522 104.14 53.3698C104.231 53.2938 104.329 53.233 104.436 53.1874C104.557 53.1419 104.679 53.1039 104.801 53.0735C104.937 53.0431 105.074 53.0203 105.211 53.0051C105.348 53.0051 105.477 53.0127 105.598 53.0279C105.842 53.0583 106.009 53.1419 106.1 53.2786C105.674 54.6768 105.371 55.7254 105.188 56.4245C105.082 56.8197 104.998 57.1616 104.937 57.4504C104.877 57.6631 104.785 57.9899 104.664 58.4306C104.557 58.8713 104.428 59.3805 104.276 59.958C104.124 60.5355 103.965 61.1586 103.798 61.8273C103.63 62.4808 103.471 63.1267 103.319 63.765C103.653 63.4306 104.01 63.0735 104.39 62.6935C104.785 62.3136 105.181 61.9185 105.576 61.5081C105.971 61.0978 106.358 60.6799 106.738 60.2543C107.133 59.8136 107.498 59.3805 107.833 58.9549C108.03 58.7118 108.197 58.5598 108.334 58.499C108.486 58.4382 108.592 58.4458 108.653 58.5218C108.714 58.5826 108.729 58.6966 108.699 58.8637C108.684 59.0157 108.608 59.1829 108.471 59.3653C108.228 59.6996 107.962 60.0568 107.673 60.4367C107.384 60.8014 107.08 61.1738 106.761 61.5537C106.457 61.9185 106.146 62.2832 105.826 62.6479C105.507 63.0127 105.203 63.347 104.915 63.651C104.611 63.9549 104.276 64.2741 103.912 64.6084C103.547 64.958 103.19 65.3607 102.84 65.8166C102.779 66.1054 102.726 66.3637 102.681 66.5917C102.65 66.8197 102.62 67.0248 102.589 67.2072C102.513 67.7391 102.46 68.1875 102.43 68.5522C102.415 68.9321 102.407 69.2589 102.407 69.5324C102.407 69.8212 102.415 70.0796 102.43 70.3075C102.445 70.5507 102.453 70.8014 102.453 71.0598C102.468 71.6069 102.445 71.9869 102.384 72.1996C102.339 72.4124 102.164 72.5188 101.86 72.5188C101.708 72.5188 101.51 72.4504 101.267 72.3136C101.024 72.1768 100.788 71.9869 100.56 71.7437C100.333 71.5005 100.135 71.2042 99.9678 70.8546C99.8158 70.5051 99.7398 70.11 99.7398 69.6692C99.7398 69.0917 99.8538 68.5218 100.082 67.9595C100.31 67.4124 100.614 66.8729 100.994 66.341C101.1 65.961 101.214 65.5355 101.336 65.0644C101.472 64.5932 101.609 64.1069 101.746 63.6054C101.883 63.1191 102.019 62.6251 102.156 62.1236C102.293 61.6221 102.422 61.151 102.544 60.7102ZM98.828 59.5476C98.828 59.9884 98.8812 60.3303 98.9875 60.5735C99.1091 60.8166 99.2459 60.999 99.3979 61.1206C99.5651 61.227 99.7322 61.2878 99.8994 61.303C100.067 61.3182 100.203 61.3258 100.31 61.3258C100.629 61.3258 100.94 61.1966 101.244 60.9382C101.548 60.6647 101.822 60.3303 102.065 59.9352C102.323 59.54 102.544 59.1145 102.726 58.6586C102.924 58.1875 103.068 57.7543 103.159 57.3592C103.205 57.1312 103.243 56.9261 103.273 56.7437C103.319 56.5613 103.357 56.4093 103.387 56.2878C103.098 56.3181 102.901 56.2574 102.795 56.1054C102.688 55.9534 102.627 55.6874 102.612 55.3075C102.612 55.1555 102.597 54.996 102.567 54.8288C102.536 54.6464 102.483 54.4868 102.407 54.3501C102.331 54.1981 102.232 54.0765 102.111 53.9853C101.989 53.8941 101.837 53.8485 101.655 53.8485C101.26 53.8485 100.887 54.0309 100.538 54.3957C100.203 54.7604 99.907 55.2239 99.6486 55.7862C99.3903 56.3485 99.1851 56.964 99.0331 57.6327C98.8964 58.3014 98.828 58.9397 98.828 59.5476ZM110.614 62.2832C110.036 62.2832 109.565 62.192 109.2 62.0096C108.836 61.8273 108.547 61.6069 108.334 61.3485C108.136 61.075 107.992 60.7862 107.901 60.4823C107.825 60.1631 107.787 59.8744 107.787 59.616C107.787 59.1601 107.825 58.6814 107.901 58.1799C107.977 57.6631 108.068 57.192 108.174 56.7665C108.281 56.3257 108.372 55.9534 108.448 55.6495C108.539 55.3455 108.6 55.1555 108.63 55.0795C108.767 54.6388 108.942 54.2589 109.155 53.9397C109.383 53.6054 109.694 53.3774 110.089 53.2558C110.241 53.2254 110.401 53.195 110.568 53.1647C110.705 53.1495 110.842 53.1419 110.978 53.1419C111.13 53.1419 111.267 53.1647 111.389 53.2102C110.978 54.2589 110.652 55.1327 110.409 55.8318C110.181 56.5309 110.006 57.1008 109.884 57.5416C109.747 58.0431 109.664 58.4458 109.633 58.7498C109.557 59.4337 109.618 59.9504 109.816 60.2999C110.013 60.6495 110.416 60.8242 111.024 60.8242C111.419 60.8242 111.799 60.6799 112.164 60.3911C112.529 60.0871 112.863 59.6996 113.167 59.2285C113.121 58.9853 113.099 58.7346 113.099 58.4762C113.099 57.9899 113.136 57.5188 113.212 57.0628C113.304 56.5917 113.402 56.1586 113.509 55.7634C113.63 55.3531 113.752 54.9884 113.874 54.6692C114.01 54.3501 114.124 54.0993 114.216 53.9169C114.383 53.5522 114.535 53.3318 114.671 53.2558C114.808 53.1647 115.029 53.1115 115.333 53.0963C115.454 53.0811 115.553 53.0811 115.629 53.0963C115.72 53.0963 115.796 53.1039 115.857 53.1191C116.039 53.1647 116.13 53.2558 116.13 53.3926C116.13 53.6358 116.115 54.0005 116.085 54.4868C116.054 54.9732 115.963 55.4747 115.811 55.9914C115.705 56.4169 115.599 56.7817 115.492 57.0856C115.401 57.3744 115.31 57.6251 115.219 57.8379C115.127 58.0355 115.036 58.2026 114.945 58.3394C114.854 58.461 114.77 58.575 114.694 58.6814C114.725 59.1373 114.763 59.502 114.808 59.7756C114.854 60.0492 114.907 60.2619 114.968 60.4139C115.044 60.5507 115.127 60.6495 115.219 60.7102C115.325 60.7558 115.439 60.7786 115.561 60.7786C115.773 60.7786 116.024 60.6799 116.313 60.4823C116.602 60.2695 116.898 60.0112 117.202 59.7072C117.521 59.3881 117.833 59.0461 118.137 58.6814C118.456 58.3014 118.744 57.9443 119.003 57.6099C119.261 57.2756 119.481 56.9868 119.664 56.7437C119.846 56.4853 119.96 56.3257 120.006 56.265C120.112 56.1282 120.211 56.0446 120.302 56.0142C120.409 55.9838 120.492 55.999 120.553 56.0598C120.614 56.1054 120.644 56.189 120.644 56.3105C120.659 56.4169 120.629 56.5385 120.553 56.6753C120.249 57.2528 119.869 57.8683 119.413 58.5218C118.972 59.1601 118.494 59.7528 117.977 60.2999C117.475 60.847 116.966 61.303 116.45 61.6677C115.933 62.0324 115.447 62.2148 114.991 62.2148C114.58 62.2148 114.254 62.078 114.01 61.8045C113.782 61.5157 113.585 61.1054 113.418 60.5735C113.068 61.1206 112.658 61.5461 112.187 61.8501C111.716 62.1388 111.191 62.2832 110.614 62.2832ZM123.744 48.4914C123.699 48.6586 123.608 48.8257 123.471 48.9929C123.349 49.1449 123.205 49.2741 123.038 49.3805C122.886 49.4716 122.726 49.5324 122.559 49.5628C122.392 49.5932 122.255 49.5628 122.149 49.4716C121.83 49.2285 121.662 48.9701 121.647 48.6966C121.632 48.4078 121.7 48.1418 121.852 47.8987C122.004 47.6403 122.194 47.4276 122.422 47.2604C122.65 47.078 122.848 46.9716 123.015 46.9412C123.182 46.9108 123.319 46.9488 123.425 47.0552C123.547 47.1464 123.638 47.2756 123.699 47.4428C123.76 47.5947 123.79 47.7695 123.79 47.9671C123.805 48.1646 123.79 48.3394 123.744 48.4914ZM120.599 53.347C120.674 53.2558 120.819 53.1798 121.032 53.1191C121.244 53.0583 121.465 53.0127 121.693 52.9823C121.921 52.9367 122.126 52.9139 122.308 52.9139C122.506 52.8987 122.62 52.8987 122.65 52.9139C122.665 52.9291 122.627 53.0887 122.536 53.3926C122.445 53.6966 122.331 54.0537 122.194 54.464C122.057 54.8744 121.913 55.2999 121.761 55.7406C121.609 56.1662 121.495 56.5157 121.419 56.7893C121.343 57.0628 121.252 57.3744 121.146 57.7239C121.039 58.0583 120.94 58.3926 120.849 58.727C120.773 59.0461 120.72 59.3501 120.69 59.6388C120.659 59.9276 120.682 60.1479 120.758 60.2999C120.834 60.4823 120.918 60.6115 121.009 60.6875C121.1 60.7482 121.199 60.7786 121.305 60.7786C121.609 60.7786 121.989 60.6115 122.445 60.2771C122.916 59.9428 123.387 59.5476 123.858 59.0917C124.345 58.6206 124.793 58.1495 125.203 57.6783C125.614 57.192 125.918 56.8045 126.115 56.5157C126.237 56.3637 126.358 56.265 126.48 56.2194C126.617 56.1738 126.723 56.1814 126.799 56.2422C126.89 56.303 126.936 56.4017 126.936 56.5385C126.951 56.6753 126.906 56.8349 126.799 57.0172C126.556 57.4428 126.199 57.9519 125.728 58.5446C125.257 59.1221 124.755 59.6844 124.223 60.2315C123.691 60.7634 123.167 61.2194 122.65 61.5993C122.149 61.9792 121.738 62.1768 121.419 62.192C121.161 62.2072 120.902 62.1616 120.644 62.0552C120.401 61.964 120.173 61.8349 119.96 61.6677C119.763 61.4853 119.595 61.2802 119.459 61.0522C119.322 60.809 119.246 60.5583 119.231 60.2999C119.185 59.92 119.185 59.4033 119.231 58.7498C119.276 58.0811 119.36 57.4048 119.481 56.7209C119.603 56.0218 119.755 55.3607 119.937 54.7376C120.135 54.1145 120.355 53.651 120.599 53.347Z" fill="#F1DAC4"/>
<path d="M161.43 11.7263L153.826 12.5814L157.109 10.3111C155.187 10.3255 152.707 10.8363 149.537 11.975L143.848 18.672L146.177 13.3735C144.37 14.3106 142.413 15.6945 140.481 17.4518L138.547 24.7546L138.915 18.9471C136.983 20.9166 135.119 23.2115 133.507 25.7637C131.813 28.4352 130.397 31.3986 129.51 34.5493L127.768 31.5437C127.643 34.4572 127.929 37.1385 128.588 39.7483L126.351 37.6173C126.589 40.643 127.275 42.8007 128.606 44.8395C127.348 48.5245 126.512 52.5567 125.649 56.5659L126.906 57.4275C131.126 32.4482 143.469 20.1656 153.827 16.5683L154.091 18.8392C144.819 22.1492 136.978 30.6838 131.797 45.2938C133.071 45.7871 134.347 45.9934 135.556 45.925L136.679 38.7408L136.893 45.755C137.713 45.5644 138.479 45.2538 139.177 44.8178L138.274 39.0428L140.141 44.0946C140.787 43.5386 141.344 42.8493 141.797 42.0334C144.546 37.1367 147.389 32.3131 152.305 29.2333L149.291 26.0725L154.204 28.1886C155.082 27.7951 156.018 27.2614 156.745 26.6986L153.294 24.8967L158.782 24.769C159.265 24.2266 159.724 23.6375 160.147 23.0351C161.646 20.86 162.762 18.4278 162.83 15.8588C162.871 14.5763 162.559 13.238 161.917 12.3125C161.757 12.0899 161.582 11.88 161.43 11.7263Z" fill="#F1DAC4"/>
<defs>
<filter id="filter0_d_509_255" x="0.429868" y="24.6421" width="145.532" height="64.83" filterUnits="userSpaceOnUse" color-interpolation-filters="sRGB">
<feFlood flood-opacity="0" result="BackgroundImageFix"/>
<feColorMatrix in="SourceAlpha" type="matrix" values="0 0 0 0 0 0 0 0 0 0 0 0 0 0 0 0 0 0 127 0" result="hardAlpha"/>
<feOffset dy="2.90216"/>
<feGaussianBlur stdDeviation="1.45108"/>
<feComposite in2="hardAlpha" operator="out"/>
<feColorMatrix type="matrix" values="0 0 0 0 0 0 0 0 0 0 0 0 0 0 0 0 0 0 0.25 0"/>
<feBlend mode="normal" in2="BackgroundImageFix" result="effect1_dropShadow_509_255"/>
<feBlend mode="normal" in="SourceGraphic" in2="effect1_dropShadow_509_255" result="shape"/>
</filter>
</defs>
</svg>
