<svg width="337" height="185" viewBox="0 0 337 185" fill="none" xmlns="http://www.w3.org/2000/svg">
<g filter="url(#filter0_d_506_74)">
<rect x="12" y="56.3057" width="277.079" height="110.694" rx="41.8843" fill="#1A3E68"/>
<rect x="9.24983" y="53.5555" width="282.58" height="116.195" rx="44.6345" stroke="#F1DAC4" stroke-width="5.50033" stroke-dasharray="13.46 13.46"/>
</g>
<path d="M46.5947 135.982C45.122 135.982 43.7433 135.747 42.4587 135.277C41.2053 134.807 40.093 134.149 39.1217 133.303C38.1817 132.457 37.4297 131.454 36.8657 130.295C36.3017 129.167 36.004 127.929 35.9727 126.582C35.9414 124.827 36.2234 123.26 36.8187 121.882C37.3827 120.503 38.1347 119.281 39.0747 118.216C40.046 117.15 41.1427 116.257 42.3647 115.537C43.5867 114.785 44.84 114.174 46.1247 113.704C45.4353 113.328 44.7773 112.873 44.1507 112.341C43.5553 111.808 43.0227 111.213 42.5527 110.555C42.0827 109.897 41.7067 109.207 41.4247 108.487C41.1427 107.766 41.0017 107.045 41.0017 106.325C40.939 104.131 41.3777 102.142 42.3177 100.356C43.289 98.5698 44.5267 97.0501 46.0307 95.7968C47.5347 94.5121 49.211 93.5251 51.0597 92.8358C52.9397 92.1465 54.7727 91.8018 56.5587 91.8018C57.7493 91.8018 58.7677 92.0055 59.6136 92.4128C60.4596 92.7888 61.149 93.2745 61.6816 93.8698C62.2143 94.4338 62.606 95.0605 62.8566 95.7498C63.1386 96.4078 63.2953 97.0188 63.3266 97.5828C63.358 98.6168 63.217 99.6665 62.9036 100.732C62.6216 101.797 62.2456 102.768 61.7756 103.646C61.337 104.492 60.8356 105.197 60.2716 105.761C59.7076 106.293 59.1593 106.56 58.6267 106.56C58.2193 106.56 57.7963 106.497 57.3577 106.372C56.9817 106.278 56.543 106.121 56.0417 105.902C55.5403 105.682 55.039 105.353 54.5377 104.915C55.3523 104.601 56.073 104.163 56.6997 103.599C57.3263 103.003 57.8433 102.345 58.2507 101.625C58.6893 100.904 59.0027 100.168 59.1907 99.4158C59.41 98.6325 59.5196 97.8961 59.5196 97.2068C59.4883 96.2041 59.2533 95.4365 58.8147 94.9038C58.376 94.3398 57.671 94.0578 56.6997 94.0578C55.3837 94.0578 54.0677 94.3868 52.7517 95.0448C51.4357 95.6715 50.2607 96.5645 49.2267 97.7238C48.224 98.8518 47.425 100.215 46.8297 101.813C46.2657 103.379 46.0777 105.087 46.2657 106.936C46.4223 108.346 46.8453 109.536 47.5347 110.508C48.2553 111.479 48.929 112.231 49.5557 112.764C50.057 112.701 50.527 112.654 50.9657 112.623C51.4043 112.56 51.8117 112.529 52.1877 112.529C52.7203 112.529 53.253 112.623 53.7857 112.811C54.3183 112.999 54.5847 113.265 54.5847 113.61C54.5847 113.86 54.522 114.142 54.3967 114.456C54.3027 114.769 54.1303 115.067 53.8797 115.349C53.629 115.631 53.3313 115.866 52.9867 116.054C52.642 116.242 52.2347 116.336 51.7647 116.336C51.3887 116.336 50.9343 116.242 50.4017 116.054C49.869 115.866 49.3363 115.631 48.8037 115.349C47.613 115.599 46.532 116.054 45.5607 116.712C44.5893 117.338 43.759 118.09 43.0697 118.968C42.4117 119.845 41.8947 120.801 41.5187 121.835C41.1427 122.869 40.9703 123.871 41.0017 124.843C41.033 125.751 41.174 126.66 41.4247 127.569C41.6753 128.509 42.067 129.339 42.5997 130.06C43.1323 130.78 43.8217 131.36 44.6677 131.799C45.545 132.269 46.5947 132.504 47.8167 132.504C48.7253 132.504 49.587 132.3 50.4017 131.893C51.2477 131.517 52.031 131.031 52.7517 130.436C53.4723 129.84 54.1303 129.182 54.7257 128.462C55.321 127.741 55.838 127.036 56.2767 126.347C56.7153 125.657 57.0757 125.031 57.3577 124.467C57.671 123.903 57.8903 123.495 58.0157 123.245C58.1097 123.057 58.235 122.916 58.3917 122.822C58.5797 122.728 58.752 122.712 58.9087 122.775C59.0967 122.806 59.2377 122.916 59.3317 123.104C59.4257 123.292 59.4257 123.574 59.3317 123.95C59.081 125.078 58.611 126.331 57.9217 127.71C57.2323 129.12 56.3393 130.436 55.2427 131.658C54.1773 132.88 52.9083 133.898 51.4357 134.713C49.9943 135.559 48.3807 135.982 46.5947 135.982ZM69.2486 125.642C69.4366 125.767 69.6716 125.83 69.9536 125.83C70.267 125.83 70.5646 125.767 70.8466 125.642C71.16 125.516 71.442 125.344 71.6926 125.125C71.9746 124.905 72.1783 124.623 72.3036 124.279C72.429 123.934 72.429 123.448 72.3036 122.822C72.1783 122.164 71.9746 121.474 71.6926 120.754C71.442 120.002 71.16 119.25 70.8466 118.498C70.5333 117.746 70.267 117.056 70.0476 116.43C69.8596 115.96 69.703 115.521 69.5776 115.114C69.4523 114.769 69.327 114.44 69.2016 114.127C69.1076 113.782 69.0293 113.547 68.9666 113.422C68.81 113.672 68.528 114.08 68.1206 114.644C67.7446 115.208 67.3216 115.803 66.8516 116.43C66.413 117.025 65.99 117.589 65.5826 118.122C65.1753 118.623 64.8933 118.968 64.7366 119.156C64.486 119.438 64.2353 119.61 63.9846 119.673C63.7653 119.704 63.5773 119.657 63.4206 119.532C63.264 119.375 63.17 119.171 63.1386 118.921C63.1386 118.639 63.264 118.31 63.5146 117.934C63.7026 117.683 63.9846 117.291 64.3606 116.759C64.7366 116.195 65.1126 115.631 65.4886 115.067C65.8646 114.471 66.2093 113.954 66.5226 113.516C66.836 113.046 67.0083 112.764 67.0396 112.67C67.1023 112.419 67.0083 112.09 66.7576 111.683C66.5383 111.275 66.507 110.805 66.6636 110.273C66.789 109.834 67.071 109.333 67.5096 108.769C67.9483 108.173 68.4653 107.641 69.0606 107.171C69.656 106.701 70.267 106.356 70.8936 106.137C71.5203 105.886 72.0843 105.886 72.5856 106.137C72.993 106.387 73.322 106.669 73.5726 106.983C73.8233 107.265 73.9173 107.562 73.8546 107.876C73.792 108.032 73.698 108.236 73.5726 108.487C73.4473 108.737 73.2593 109.051 73.0086 109.427C72.758 109.771 72.3976 110.226 71.9276 110.79C72.0216 111.51 72.147 112.168 72.3036 112.764C72.4916 113.359 72.664 113.876 72.8206 114.315C73.0086 114.847 73.2123 115.333 73.4316 115.772C73.7136 116.336 74.0113 116.915 74.3246 117.511C74.638 118.106 74.92 118.701 75.1706 119.297C75.4213 119.861 75.625 120.393 75.7816 120.895C75.9383 121.396 75.9853 121.819 75.9226 122.164C75.8286 122.696 75.5466 123.339 75.0766 124.091C74.638 124.843 74.074 125.579 73.3846 126.3C72.7266 126.989 71.959 127.584 71.0816 128.086C70.2356 128.587 69.3426 128.838 68.4026 128.838C67.7446 128.838 67.1023 128.634 66.4756 128.227C65.8803 127.819 65.3633 127.349 64.9246 126.817C64.5173 126.253 64.204 125.704 63.9846 125.172C63.7966 124.639 63.781 124.232 63.9376 123.95C64.1256 123.574 64.298 123.276 64.4546 123.057C64.6113 122.837 64.8463 122.587 65.1596 122.305C65.285 122.211 65.4416 122.101 65.6296 121.976C65.7863 121.882 66.0056 121.788 66.2876 121.694C66.5696 121.6 66.8986 121.49 67.2746 121.365C67.588 122.336 67.87 123.104 68.1206 123.668C68.3713 124.2 68.575 124.623 68.7316 124.937C68.9196 125.281 69.092 125.516 69.2486 125.642ZM87.5316 125.642C88.5029 125.642 89.5683 125.266 90.7276 124.514C91.9183 123.73 93.0619 122.822 94.1586 121.788C95.2866 120.754 96.3049 119.704 97.2136 118.639C98.1536 117.542 98.8586 116.665 99.3286 116.007C99.6106 115.599 99.8769 115.364 100.128 115.302C100.378 115.208 100.566 115.239 100.692 115.396C100.817 115.552 100.864 115.803 100.833 116.148C100.801 116.461 100.66 116.821 100.41 117.229C100.19 117.605 99.8143 118.153 99.2816 118.874C98.7803 119.563 98.1693 120.331 97.4486 121.177C96.7593 121.991 95.9603 122.837 95.0516 123.715C94.1743 124.561 93.2499 125.344 92.2786 126.065C91.3073 126.754 90.3046 127.318 89.2706 127.757C88.2366 128.227 87.2183 128.462 86.2156 128.462C84.8369 128.462 83.6776 128.195 82.7376 127.663C81.8289 127.161 81.0926 126.503 80.5286 125.689C79.996 124.874 79.62 123.981 79.4006 123.01C79.1813 122.007 79.0716 121.02 79.0716 120.049C79.0716 119.077 79.291 117.871 79.7296 116.43C80.1683 114.988 80.8106 113.61 81.6566 112.294C82.5339 110.946 83.6306 109.803 84.9466 108.863C86.2626 107.891 87.8136 107.406 89.5996 107.406C90.6023 107.406 91.4483 107.75 92.1376 108.44C92.8583 109.129 93.2029 110.069 93.1716 111.26C93.1716 111.824 93.0776 112.388 92.8896 112.952C92.7016 113.484 92.4509 113.97 92.1376 114.409C91.8243 114.816 91.4483 115.145 91.0096 115.396C90.6023 115.646 90.1479 115.772 89.6466 115.772C89.2393 115.772 88.9259 115.631 88.7066 115.349C88.5186 115.035 88.3933 114.691 88.3306 114.315C88.2993 113.907 88.2993 113.516 88.3306 113.14C88.3933 112.764 88.4559 112.513 88.5186 112.388C88.6753 112.168 88.8476 112.012 89.0356 111.918C89.2236 111.824 89.4429 111.714 89.6936 111.589C89.8816 111.495 90.0226 111.354 90.1166 111.166C90.2419 110.978 90.3046 110.774 90.3046 110.555C90.3046 110.335 90.2419 110.147 90.1166 109.991C89.9913 109.834 89.7876 109.756 89.5056 109.756C89.2236 109.756 88.7066 109.991 87.9546 110.461C87.2339 110.899 86.4819 111.573 85.6986 112.482C84.9466 113.359 84.2729 114.471 83.6776 115.819C83.0823 117.166 82.7689 118.733 82.7376 120.519C82.7063 121.553 82.8473 122.399 83.1606 123.057C83.4739 123.715 83.8656 124.232 84.3356 124.608C84.8056 124.984 85.3226 125.25 85.8866 125.407C86.4506 125.563 86.9989 125.642 87.5316 125.642ZM95.2396 127.005C95.0203 127.349 94.7853 127.569 94.5346 127.663C94.2526 127.788 94.0176 127.804 93.8296 127.71C93.6103 127.647 93.4693 127.49 93.4066 127.24C93.3439 126.989 93.4066 126.676 93.5946 126.3C93.6886 126.112 93.9079 125.689 94.2526 125.031C94.5659 124.373 94.9576 123.589 95.4276 122.681C95.8663 121.741 96.3519 120.738 96.8846 119.673C97.4173 118.576 97.9186 117.542 98.3886 116.571C98.8899 115.599 99.3443 114.738 99.7516 113.986C100.159 113.202 100.457 112.638 100.645 112.294C100.3 111.98 100.065 111.761 99.9396 111.636C99.8143 111.479 99.7203 111.166 99.6576 110.696C99.5949 110.288 99.6889 109.756 99.9396 109.098C100.19 108.44 100.519 107.813 100.927 107.218C101.334 106.591 101.788 106.058 102.29 105.62C102.791 105.181 103.277 104.962 103.747 104.962C104.624 104.962 105.235 105.244 105.58 105.808C105.956 106.372 106.175 106.951 106.238 107.547C106.3 107.954 106.269 108.471 106.144 109.098C106.018 109.724 105.783 110.288 105.439 110.79C105.533 110.852 105.658 110.931 105.815 111.025C105.971 111.087 106.222 111.119 106.567 111.119C107.068 111.119 107.413 111.087 107.601 111.025C107.82 110.962 108.149 110.931 108.588 110.931C109.12 110.931 109.559 111.072 109.904 111.354C110.248 111.604 110.53 111.933 110.75 112.341C110.969 112.717 111.126 113.14 111.22 113.61C111.345 114.048 111.423 114.456 111.455 114.832C111.549 115.615 111.345 116.43 110.844 117.276C110.342 118.122 109.731 119.046 109.011 120.049C108.572 120.675 108.133 121.38 107.695 122.164C107.256 122.947 107.068 123.652 107.131 124.279C107.193 124.686 107.303 125.015 107.46 125.266C107.616 125.516 108.055 125.642 108.776 125.642C109.308 125.642 109.888 125.454 110.515 125.078C111.173 124.67 111.831 124.169 112.489 123.574C113.178 122.947 113.852 122.273 114.51 121.553C115.168 120.801 115.779 120.08 116.343 119.391C116.907 118.67 117.377 118.028 117.753 117.464C118.16 116.9 118.458 116.492 118.646 116.242C118.802 115.991 119.006 115.819 119.257 115.725C119.507 115.631 119.727 115.631 119.915 115.725C120.103 115.819 120.212 116.007 120.244 116.289C120.306 116.571 120.197 116.947 119.915 117.417C119.727 117.73 119.398 118.231 118.928 118.921C118.489 119.61 117.941 120.378 117.283 121.224C116.656 122.07 115.951 122.947 115.168 123.856C114.384 124.733 113.554 125.548 112.677 126.3C111.831 127.02 110.969 127.616 110.092 128.086C109.246 128.556 108.431 128.791 107.648 128.791C106.833 128.791 106.159 128.634 105.627 128.321C105.094 128.007 104.655 127.631 104.311 127.193C103.997 126.723 103.762 126.221 103.606 125.689C103.48 125.125 103.433 124.608 103.465 124.138C103.496 123.762 103.59 123.37 103.747 122.963C103.935 122.524 104.138 122.085 104.358 121.647C104.608 121.177 104.859 120.722 105.11 120.284C105.392 119.814 105.642 119.359 105.862 118.921C106.394 118.012 106.817 117.244 107.131 116.618C107.475 115.96 107.648 115.411 107.648 114.973C107.648 114.691 107.585 114.44 107.46 114.221C107.334 114.001 107.131 113.892 106.849 113.892C106.661 113.892 106.52 113.907 106.426 113.939C106.363 113.939 106.285 113.939 106.191 113.939C106.128 113.939 106.018 113.954 105.862 113.986C105.736 113.986 105.533 113.986 105.251 113.986C104.843 113.986 104.499 113.923 104.217 113.798C103.935 113.672 103.668 113.578 103.418 113.516C103.292 113.735 103.01 114.205 102.572 114.926C102.133 115.646 101.616 116.492 101.021 117.464C100.457 118.435 99.8456 119.453 99.1876 120.519C98.5609 121.584 97.9656 122.587 97.4016 123.527C96.8376 124.435 96.3676 125.219 95.9916 125.877C95.5843 126.503 95.3336 126.879 95.2396 127.005ZM137.869 117.464C136.929 118.842 135.863 120.19 134.673 121.506C133.482 122.79 132.213 123.95 130.866 124.984C129.55 125.986 128.187 126.801 126.777 127.428C125.398 128.054 124.051 128.368 122.735 128.368C122.045 128.368 121.293 128.195 120.479 127.851C119.695 127.537 118.975 127.036 118.317 126.347C117.659 125.657 117.126 124.764 116.719 123.668C116.343 122.571 116.233 121.239 116.39 119.673C116.515 118.388 116.907 117.041 117.565 115.631C118.254 114.189 119.084 112.873 120.056 111.683C121.058 110.492 122.171 109.505 123.393 108.722C124.646 107.938 125.899 107.547 127.153 107.547C128.343 107.547 129.205 107.844 129.738 108.44C130.27 109.035 130.505 109.771 130.443 110.649C130.349 111.62 130.067 112.513 129.597 113.328C129.158 114.142 128.625 114.879 127.999 115.537C127.372 116.195 126.698 116.79 125.978 117.323C125.288 117.855 124.63 118.341 124.004 118.78C123.314 119.25 122.656 119.704 122.03 120.143C121.403 120.55 120.855 120.926 120.385 121.271C120.416 122.054 120.557 122.712 120.808 123.245C121.058 123.777 121.372 124.216 121.748 124.561C122.124 124.874 122.547 125.109 123.017 125.266C123.518 125.391 124.019 125.454 124.521 125.454C125.586 125.454 126.698 125.125 127.858 124.467C129.017 123.777 130.145 122.963 131.242 122.023C132.37 121.051 133.404 120.049 134.344 119.015C135.315 117.981 136.114 117.088 136.741 116.336C136.96 116.085 137.179 115.944 137.399 115.913C137.649 115.85 137.837 115.881 137.963 116.007C138.119 116.101 138.198 116.289 138.198 116.571C138.198 116.821 138.088 117.119 137.869 117.464ZM125.837 110.226C125.461 110.226 125.006 110.414 124.474 110.79C123.972 111.166 123.471 111.714 122.97 112.435C122.468 113.124 121.998 113.986 121.56 115.02C121.121 116.022 120.792 117.182 120.573 118.498C120.949 118.216 121.356 117.934 121.795 117.652C122.233 117.338 122.672 117.009 123.111 116.665C124.458 115.631 125.398 114.722 125.931 113.939C126.463 113.155 126.761 112.482 126.824 111.918C126.886 111.322 126.824 110.899 126.636 110.649C126.448 110.367 126.181 110.226 125.837 110.226ZM148.256 118.874C147.441 120.064 146.595 121.224 145.718 122.352C144.872 123.48 144.041 124.498 143.227 125.407C142.443 126.284 141.707 126.989 141.018 127.522C140.36 128.086 139.827 128.368 139.42 128.368C138.448 128.368 137.649 127.913 137.023 127.005C136.427 126.065 135.957 124.921 135.613 123.574C135.299 122.195 135.096 120.738 135.002 119.203C134.939 117.636 134.955 116.242 135.049 115.02C135.174 113.798 135.315 112.826 135.472 112.106C135.628 111.354 135.816 110.774 136.036 110.367C136.286 109.959 136.568 109.662 136.882 109.474C137.226 109.286 137.649 109.129 138.151 109.004C138.37 108.941 138.621 108.894 138.903 108.863C139.185 108.831 139.435 108.847 139.655 108.91C139.905 108.941 140.093 109.035 140.219 109.192C140.344 109.348 140.36 109.583 140.266 109.897C140.203 110.179 140.093 110.602 139.937 111.166C139.811 111.698 139.67 112.309 139.514 112.999C139.357 113.688 139.2 114.409 139.044 115.161C138.918 115.913 138.824 116.633 138.762 117.323C138.668 118.513 138.668 119.563 138.762 120.472C138.856 121.349 138.997 122.101 139.185 122.728C139.373 123.323 139.576 123.777 139.796 124.091C140.015 124.404 140.187 124.561 140.313 124.561C140.469 124.561 140.751 124.357 141.159 123.95C141.597 123.511 142.083 122.947 142.616 122.258C143.18 121.568 143.759 120.769 144.355 119.861C144.981 118.952 145.561 118.012 146.094 117.041C145.906 116.539 145.827 115.944 145.859 115.255C145.953 114.189 146.188 113.234 146.564 112.388C146.94 111.51 147.363 110.774 147.833 110.179C148.334 109.583 148.835 109.129 149.337 108.816C149.869 108.471 150.339 108.299 150.746 108.299C151.561 108.299 152.062 108.518 152.25 108.957C152.47 109.364 152.548 109.787 152.485 110.226C152.423 110.884 152.125 111.792 151.592 112.952C151.091 114.08 150.433 115.317 149.619 116.665C149.775 116.727 149.948 116.79 150.136 116.853C150.324 116.915 150.543 116.947 150.793 116.947C151.859 116.947 152.814 116.821 153.66 116.571C154.538 116.32 155.29 116.022 155.916 115.678C156.574 115.333 157.123 114.973 157.561 114.597C158.031 114.189 158.407 113.86 158.689 113.61C158.877 113.422 159.065 113.328 159.253 113.328C159.441 113.328 159.598 113.375 159.723 113.469C159.849 113.563 159.911 113.704 159.911 113.892C159.911 114.08 159.817 114.283 159.629 114.503C158.501 115.881 157.123 116.994 155.493 117.84C153.895 118.686 152.015 119.109 149.854 119.109C149.666 119.109 149.431 119.093 149.149 119.062C148.867 119.03 148.569 118.968 148.256 118.874ZM176.361 117.464C175.421 118.842 174.356 120.19 173.165 121.506C171.975 122.79 170.706 123.95 169.358 124.984C168.042 125.986 166.679 126.801 165.269 127.428C163.891 128.054 162.543 128.368 161.227 128.368C160.538 128.368 159.786 128.195 158.971 127.851C158.188 127.537 157.467 127.036 156.809 126.347C156.151 125.657 155.619 124.764 155.211 123.668C154.835 122.571 154.726 121.239 154.882 119.673C155.008 118.388 155.399 117.041 156.057 115.631C156.747 114.189 157.577 112.873 158.548 111.683C159.551 110.492 160.663 109.505 161.885 108.722C163.139 107.938 164.392 107.547 165.645 107.547C166.836 107.547 167.698 107.844 168.23 108.44C168.763 109.035 168.998 109.771 168.935 110.649C168.841 111.62 168.559 112.513 168.089 113.328C167.651 114.142 167.118 114.879 166.491 115.537C165.865 116.195 165.191 116.79 164.47 117.323C163.781 117.855 163.123 118.341 162.496 118.78C161.807 119.25 161.149 119.704 160.522 120.143C159.896 120.55 159.347 120.926 158.877 121.271C158.909 122.054 159.05 122.712 159.3 123.245C159.551 123.777 159.864 124.216 160.24 124.561C160.616 124.874 161.039 125.109 161.509 125.266C162.011 125.391 162.512 125.454 163.013 125.454C164.079 125.454 165.191 125.125 166.35 124.467C167.51 123.777 168.638 122.963 169.734 122.023C170.862 121.051 171.896 120.049 172.836 119.015C173.808 117.981 174.607 117.088 175.233 116.336C175.453 116.085 175.672 115.944 175.891 115.913C176.142 115.85 176.33 115.881 176.455 116.007C176.612 116.101 176.69 116.289 176.69 116.571C176.69 116.821 176.581 117.119 176.361 117.464ZM164.329 110.226C163.953 110.226 163.499 110.414 162.966 110.79C162.465 111.166 161.964 111.714 161.462 112.435C160.961 113.124 160.491 113.986 160.052 115.02C159.614 116.022 159.285 117.182 159.065 118.498C159.441 118.216 159.849 117.934 160.287 117.652C160.726 117.338 161.165 117.009 161.603 116.665C162.951 115.631 163.891 114.722 164.423 113.939C164.956 113.155 165.254 112.482 165.316 111.918C165.379 111.322 165.316 110.899 165.128 110.649C164.94 110.367 164.674 110.226 164.329 110.226ZM193.328 91.8488C194.425 91.8488 195.318 92.1621 196.007 92.7888C196.728 93.3841 197.041 94.4808 196.947 96.0788C196.916 96.6115 196.791 97.6141 196.571 99.0868C196.352 100.528 196.086 102.236 195.772 104.21C195.459 106.184 195.099 108.314 194.691 110.602C194.315 112.858 193.955 115.067 193.61 117.229H194.597C194.911 117.229 195.255 117.213 195.631 117.182C196.007 117.15 196.399 117.103 196.806 117.041C196.65 117.417 196.477 117.777 196.289 118.122C196.101 118.435 195.913 118.717 195.725 118.968C195.506 119.25 195.287 119.5 195.067 119.72C194.785 120.064 194.456 120.378 194.08 120.66C193.704 120.91 193.344 121.114 192.999 121.271C192.78 122.806 192.592 124.185 192.435 125.407C192.31 126.597 192.232 127.584 192.2 128.368C192.138 129.558 192.169 130.671 192.294 131.705C192.388 132.613 192.576 133.538 192.858 134.478C193.14 135.418 193.595 136.17 194.221 136.734L188.769 138.52C188.393 137.987 188.111 137.266 187.923 136.358C187.767 135.48 187.657 134.603 187.594 133.726C187.5 132.692 187.485 131.626 187.547 130.53C187.61 129.433 187.782 128.007 188.064 126.253C188.346 124.467 188.66 122.524 189.004 120.425C188.378 120.237 187.688 120.08 186.936 119.955C186.216 119.829 185.401 119.767 184.492 119.767C183.678 119.767 182.816 119.798 181.907 119.861C181.03 119.923 180.153 120.002 179.275 120.096C178.899 121.474 178.523 122.931 178.147 124.467C177.74 126.127 177.364 127.537 177.019 128.697C176.706 129.887 176.393 130.874 176.079 131.658C175.797 132.441 175.5 133.068 175.186 133.538C174.904 134.008 174.591 134.352 174.246 134.572C173.87 134.76 173.4 134.932 172.836 135.089C172.304 135.245 171.63 135.402 170.815 135.559C170.001 135.715 168.951 135.841 167.666 135.935C168.136 135.371 168.544 134.854 168.888 134.384C169.233 133.914 169.578 133.334 169.922 132.645C170.267 131.955 170.659 131.062 171.097 129.966C171.505 128.9 172.037 127.49 172.695 125.736C172.977 125.015 173.259 124.232 173.541 123.386C173.855 122.508 174.184 121.615 174.528 120.707C173.4 120.863 172.445 121.004 171.661 121.13C170.878 121.255 170.408 121.349 170.251 121.412C170.001 121.443 169.797 121.443 169.64 121.412C169.233 121.349 169.014 121.145 168.982 120.801C169.014 120.362 169.17 120.064 169.452 119.908C169.703 119.751 170.095 119.563 170.627 119.344C170.878 119.218 171.458 118.999 172.366 118.686C173.244 118.341 174.325 117.981 175.609 117.605C176.079 116.289 176.534 114.988 176.972 113.704C177.442 112.388 177.897 111.134 178.335 109.944C178.774 108.753 179.197 107.641 179.604 106.607C180.012 105.541 180.388 104.633 180.732 103.881C181.265 102.721 181.939 101.452 182.753 100.074C183.599 98.6638 184.555 97.3478 185.62 96.1258C186.717 94.9038 187.908 93.8855 189.192 93.0708C190.508 92.2561 191.887 91.8488 193.328 91.8488ZM192.811 101.625C193.156 100.215 193.391 99.0555 193.516 98.1468C193.642 97.2381 193.689 96.5331 193.657 96.0318C193.626 95.4991 193.516 95.1388 193.328 94.9508C193.172 94.7315 192.968 94.6218 192.717 94.6218C192.31 94.6218 191.809 94.7785 191.213 95.0918C190.618 95.4051 189.991 95.8595 189.333 96.4548C188.675 97.0188 188.017 97.7395 187.359 98.6168C186.733 99.4628 186.169 100.434 185.667 101.531C184.947 103.16 184.132 105.165 183.223 107.547C182.315 109.897 181.328 112.905 180.262 116.571C180.889 116.477 181.5 116.398 182.095 116.336C182.722 116.273 183.333 116.242 183.928 116.242C184.994 116.242 186.012 116.289 186.983 116.383C187.955 116.445 188.848 116.524 189.662 116.618C189.944 115.114 190.226 113.641 190.508 112.2C190.822 110.727 191.119 109.333 191.401 108.017C191.683 106.701 191.934 105.494 192.153 104.398C192.404 103.301 192.623 102.377 192.811 101.625ZM211.047 124.749C210.703 125.219 210.327 125.689 209.919 126.159C209.512 126.629 209.073 127.052 208.603 127.428C208.133 127.804 207.632 128.101 207.099 128.321C206.567 128.571 206.003 128.697 205.407 128.697C203.935 128.697 202.791 128.399 201.976 127.804C201.162 127.208 200.551 126.503 200.143 125.689C199.767 124.874 199.548 124.044 199.485 123.198C199.391 122.32 199.344 121.615 199.344 121.083C199.344 119.641 199.626 118.184 200.19 116.712C200.754 115.208 201.506 113.845 202.446 112.623C203.386 111.401 204.452 110.414 205.642 109.662C206.864 108.878 208.102 108.487 209.355 108.487C210.139 108.487 210.797 108.659 211.329 109.004C211.862 109.317 212.301 109.709 212.645 110.179C212.99 110.649 213.241 111.15 213.397 111.683C213.585 112.215 213.711 112.685 213.773 113.093C213.836 112.717 213.899 112.325 213.961 111.918C214.024 111.573 214.087 111.197 214.149 110.79C214.212 110.382 214.275 109.991 214.337 109.615C214.525 109.458 214.729 109.333 214.948 109.239C215.199 109.145 215.45 109.066 215.7 109.004C215.982 108.941 216.264 108.894 216.546 108.863C216.828 108.863 217.095 108.878 217.345 108.91C217.847 108.972 218.191 109.145 218.379 109.427C217.502 112.309 216.875 114.471 216.499 115.913C216.28 116.727 216.108 117.432 215.982 118.028C215.857 118.466 215.669 119.14 215.418 120.049C215.199 120.957 214.933 122.007 214.619 123.198C214.306 124.388 213.977 125.673 213.632 127.052C213.288 128.399 212.959 129.731 212.645 131.047C213.335 130.357 214.071 129.621 214.854 128.838C215.669 128.054 216.484 127.24 217.298 126.394C218.113 125.548 218.912 124.686 219.695 123.809C220.51 122.9 221.262 122.007 221.951 121.13C222.359 120.628 222.703 120.315 222.985 120.19C223.299 120.064 223.518 120.08 223.643 120.237C223.769 120.362 223.8 120.597 223.737 120.942C223.706 121.255 223.549 121.6 223.267 121.976C222.766 122.665 222.218 123.401 221.622 124.185C221.027 124.937 220.4 125.704 219.742 126.488C219.116 127.24 218.473 127.992 217.815 128.744C217.157 129.496 216.531 130.185 215.935 130.812C215.309 131.438 214.619 132.096 213.867 132.786C213.115 133.506 212.379 134.337 211.658 135.277C211.533 135.872 211.423 136.405 211.329 136.875C211.267 137.345 211.204 137.768 211.141 138.144C210.985 139.24 210.875 140.165 210.812 140.917C210.781 141.7 210.765 142.374 210.765 142.938C210.765 143.533 210.781 144.066 210.812 144.536C210.844 145.037 210.859 145.554 210.859 146.087C210.891 147.215 210.844 147.998 210.718 148.437C210.624 148.875 210.264 149.095 209.637 149.095C209.324 149.095 208.917 148.954 208.415 148.672C207.914 148.39 207.428 147.998 206.958 147.497C206.488 146.995 206.081 146.384 205.736 145.664C205.423 144.943 205.266 144.128 205.266 143.22C205.266 142.029 205.501 140.854 205.971 139.695C206.441 138.567 207.068 137.454 207.851 136.358C208.071 135.574 208.306 134.697 208.556 133.726C208.838 132.754 209.12 131.752 209.402 130.718C209.684 129.715 209.966 128.697 210.248 127.663C210.53 126.629 210.797 125.657 211.047 124.749ZM203.386 122.352C203.386 123.26 203.496 123.965 203.715 124.467C203.966 124.968 204.248 125.344 204.561 125.595C204.906 125.814 205.251 125.939 205.595 125.971C205.94 126.002 206.222 126.018 206.441 126.018C207.099 126.018 207.742 125.751 208.368 125.219C208.995 124.655 209.559 123.965 210.06 123.151C210.593 122.336 211.047 121.459 211.423 120.519C211.831 119.547 212.128 118.654 212.316 117.84C212.41 117.37 212.489 116.947 212.551 116.571C212.645 116.195 212.724 115.881 212.786 115.631C212.191 115.693 211.784 115.568 211.564 115.255C211.345 114.941 211.22 114.393 211.188 113.61C211.188 113.296 211.157 112.967 211.094 112.623C211.032 112.247 210.922 111.918 210.765 111.636C210.609 111.322 210.405 111.072 210.154 110.884C209.904 110.696 209.59 110.602 209.214 110.602C208.4 110.602 207.632 110.978 206.911 111.73C206.222 112.482 205.611 113.437 205.078 114.597C204.546 115.756 204.123 117.025 203.809 118.404C203.527 119.782 203.386 121.098 203.386 122.352ZM227.685 127.992C226.495 127.992 225.523 127.804 224.771 127.428C224.019 127.052 223.424 126.597 222.985 126.065C222.578 125.501 222.28 124.905 222.092 124.279C221.936 123.621 221.857 123.025 221.857 122.493C221.857 121.553 221.936 120.566 222.092 119.532C222.249 118.466 222.437 117.495 222.656 116.618C222.876 115.709 223.064 114.941 223.22 114.315C223.408 113.688 223.534 113.296 223.596 113.14C223.878 112.231 224.239 111.448 224.677 110.79C225.147 110.1 225.79 109.63 226.604 109.38C226.918 109.317 227.247 109.254 227.591 109.192C227.873 109.16 228.155 109.145 228.437 109.145C228.751 109.145 229.033 109.192 229.283 109.286C228.437 111.448 227.764 113.249 227.262 114.691C226.792 116.132 226.432 117.307 226.181 118.216C225.899 119.25 225.727 120.08 225.664 120.707C225.508 122.117 225.633 123.182 226.04 123.903C226.448 124.623 227.278 124.984 228.531 124.984C229.346 124.984 230.129 124.686 230.881 124.091C231.633 123.464 232.323 122.665 232.949 121.694C232.855 121.192 232.808 120.675 232.808 120.143C232.808 119.14 232.887 118.169 233.043 117.229C233.231 116.257 233.435 115.364 233.654 114.55C233.905 113.704 234.156 112.952 234.406 112.294C234.688 111.636 234.923 111.119 235.111 110.743C235.456 109.991 235.769 109.536 236.051 109.38C236.333 109.192 236.788 109.082 237.414 109.051C237.665 109.019 237.869 109.019 238.025 109.051C238.213 109.051 238.37 109.066 238.495 109.098C238.871 109.192 239.059 109.38 239.059 109.662C239.059 110.163 239.028 110.915 238.965 111.918C238.903 112.92 238.715 113.954 238.401 115.02C238.182 115.897 237.963 116.649 237.743 117.276C237.555 117.871 237.367 118.388 237.179 118.827C236.991 119.234 236.803 119.579 236.615 119.861C236.427 120.111 236.255 120.346 236.098 120.566C236.161 121.506 236.239 122.258 236.333 122.822C236.427 123.386 236.537 123.824 236.662 124.138C236.819 124.42 236.991 124.623 237.179 124.749C237.399 124.843 237.634 124.89 237.884 124.89C238.323 124.89 238.84 124.686 239.435 124.279C240.031 123.84 240.642 123.307 241.268 122.681C241.926 122.023 242.569 121.318 243.195 120.566C243.853 119.782 244.449 119.046 244.981 118.357C245.514 117.667 245.968 117.072 246.344 116.571C246.72 116.038 246.955 115.709 247.049 115.584C247.269 115.302 247.472 115.129 247.66 115.067C247.88 115.004 248.052 115.035 248.177 115.161C248.303 115.255 248.365 115.427 248.365 115.678C248.397 115.897 248.334 116.148 248.177 116.43C247.551 117.62 246.767 118.889 245.827 120.237C244.919 121.553 243.932 122.775 242.866 123.903C241.832 125.031 240.783 125.971 239.717 126.723C238.652 127.475 237.649 127.851 236.709 127.851C235.863 127.851 235.19 127.569 234.688 127.005C234.218 126.409 233.811 125.563 233.466 124.467C232.746 125.595 231.9 126.472 230.928 127.099C229.957 127.694 228.876 127.992 227.685 127.992ZM254.757 99.5568C254.663 99.9015 254.475 100.246 254.193 100.591C253.943 100.904 253.645 101.17 253.3 101.39C252.987 101.578 252.658 101.703 252.313 101.766C251.969 101.828 251.687 101.766 251.467 101.578C250.809 101.076 250.465 100.544 250.433 99.9798C250.402 99.3845 250.543 98.8361 250.856 98.3348C251.17 97.8021 251.561 97.3635 252.031 97.0188C252.501 96.6428 252.909 96.4235 253.253 96.3608C253.598 96.2981 253.88 96.3765 254.099 96.5958C254.35 96.7838 254.538 97.0501 254.663 97.3948C254.789 97.7081 254.851 98.0685 254.851 98.4758C254.883 98.8831 254.851 99.2435 254.757 99.5568ZM248.271 109.568C248.428 109.38 248.726 109.223 249.164 109.098C249.603 108.972 250.057 108.878 250.527 108.816C250.997 108.722 251.42 108.675 251.796 108.675C252.204 108.643 252.439 108.643 252.501 108.675C252.533 108.706 252.454 109.035 252.266 109.662C252.078 110.288 251.843 111.025 251.561 111.871C251.279 112.717 250.982 113.594 250.668 114.503C250.355 115.38 250.12 116.101 249.963 116.665C249.807 117.229 249.619 117.871 249.399 118.592C249.18 119.281 248.976 119.97 248.788 120.66C248.632 121.318 248.522 121.944 248.459 122.54C248.397 123.135 248.444 123.589 248.6 123.903C248.757 124.279 248.929 124.545 249.117 124.702C249.305 124.827 249.509 124.89 249.728 124.89C250.355 124.89 251.138 124.545 252.078 123.856C253.05 123.166 254.021 122.352 254.992 121.412C255.995 120.44 256.919 119.469 257.765 118.498C258.611 117.495 259.238 116.696 259.645 116.101C259.896 115.787 260.147 115.584 260.397 115.49C260.679 115.396 260.899 115.411 261.055 115.537C261.243 115.662 261.337 115.866 261.337 116.148C261.369 116.43 261.275 116.759 261.055 117.135C260.554 118.012 259.818 119.062 258.846 120.284C257.875 121.474 256.841 122.634 255.744 123.762C254.648 124.858 253.567 125.798 252.501 126.582C251.467 127.365 250.621 127.772 249.963 127.804C249.431 127.835 248.898 127.741 248.365 127.522C247.864 127.334 247.394 127.067 246.955 126.723C246.548 126.347 246.203 125.924 245.921 125.454C245.639 124.952 245.483 124.435 245.451 123.903C245.357 123.119 245.357 122.054 245.451 120.707C245.545 119.328 245.718 117.934 245.968 116.524C246.219 115.082 246.532 113.719 246.908 112.435C247.316 111.15 247.77 110.194 248.271 109.568Z" fill="#F1DAC4"/>
<path d="M332.453 24.1765L316.777 25.9395L323.546 21.2586C319.583 21.2883 314.469 22.3414 307.933 24.6892L296.205 38.4966L301.008 27.5725C297.281 29.5045 293.245 32.3577 289.264 35.9809L285.276 51.0372L286.035 39.0638C282.052 43.1243 278.209 47.8559 274.884 53.1177C271.393 58.6257 268.472 64.7353 266.643 71.2313L263.053 65.0345C262.795 71.0414 263.385 76.5695 264.744 81.9502L260.13 77.5568C260.622 83.7948 262.036 88.2434 264.781 92.4469C262.186 100.044 260.463 108.358 258.684 116.624L261.276 118.4C269.975 66.8994 295.424 41.5761 316.779 34.1592L317.324 38.8412C298.208 45.6657 282.042 63.2616 271.359 93.3835C273.986 94.4005 276.616 94.826 279.109 94.6849L281.424 79.873L281.867 94.3344C283.556 93.9414 285.135 93.301 286.575 92.4022L284.713 80.4957L288.562 90.9111C289.893 89.7648 291.042 88.3437 291.976 86.6615C297.643 76.5657 303.506 66.6209 313.641 60.2712L307.428 53.7545L317.557 58.1172C319.366 57.3059 321.296 56.2055 322.795 55.0452L315.679 51.3303L326.996 51.0669C327.991 49.9486 328.936 48.7341 329.809 47.4922C332.9 43.0076 335.201 37.9932 335.341 32.6965C335.425 30.0523 334.782 27.2932 333.458 25.385C333.129 24.926 332.767 24.4933 332.453 24.1765Z" fill="#F1DAC4"/>
<defs>
<filter id="filter0_d_506_74" x="0.516285" y="50.8054" width="300.047" height="133.662" filterUnits="userSpaceOnUse" color-interpolation-filters="sRGB">
<feFlood flood-opacity="0" result="BackgroundImageFix"/>
<feColorMatrix in="SourceAlpha" type="matrix" values="0 0 0 0 0 0 0 0 0 0 0 0 0 0 0 0 0 0 127 0" result="hardAlpha"/>
<feOffset dy="5.98347"/>
<feGaussianBlur stdDeviation="2.99174"/>
<feComposite in2="hardAlpha" operator="out"/>
<feColorMatrix type="matrix" values="0 0 0 0 0 0 0 0 0 0 0 0 0 0 0 0 0 0 0.25 0"/>
<feBlend mode="normal" in2="BackgroundImageFix" result="effect1_dropShadow_506_74"/>
<feBlend mode="normal" in="SourceGraphic" in2="effect1_dropShadow_506_74" result="shape"/>
</filter>
</defs>
</svg>
