<svg width="59" height="52" viewBox="0 0 59 52" fill="none" xmlns="http://www.w3.org/2000/svg">
<path d="M38.6849 42.0628H40.0473C50.9461 42.0628 56.3955 39.7061 56.3955 27.923V16.1398C56.3955 6.71327 50.9461 2 40.0473 2H18.2496C7.35075 2 1.90133 6.71327 1.90133 16.1398V27.923C1.90133 37.3495 7.35075 42.0628 18.2496 42.0628H19.6119C20.4566 42.0628 21.274 42.4163 21.7917 43.0054L25.8788 47.7187C27.6771 49.7925 30.6198 49.7925 32.4181 47.7187L36.5051 43.0054C36.9411 42.487 37.9492 42.0628 38.6849 42.0628Z" stroke="#1A3E68" stroke-width="3.53495" stroke-miterlimit="10" stroke-linecap="round" stroke-linejoin="round"/>
<path d="M18.2583 23.21H18.236" stroke="#1A3E68" stroke-width="4.71327" stroke-linecap="round" stroke-linejoin="round"/>
<path d="M29.1592 23.21H29.137" stroke="#1A3E68" stroke-width="4.71327" stroke-linecap="round" stroke-linejoin="round"/>
<path d="M40.062 23.21H40.0398" stroke="#1A3E68" stroke-width="4.71327" stroke-linecap="round" stroke-linejoin="round"/>
</svg>
