<svg width="25" height="25" viewBox="0 0 25 25" fill="none" xmlns="http://www.w3.org/2000/svg">
<path d="M11.9194 23.8373C5.3492 23.8373 0 18.4884 0 11.9186C0 5.34885 5.3492 0 11.9194 0C18.4896 0 23.8388 5.34885 23.8388 11.9186C23.8388 18.4884 18.4896 23.8373 11.9194 23.8373ZM11.9194 1.74419C6.30276 1.74419 1.7443 6.31397 1.7443 11.9186C1.7443 17.5233 6.30276 22.0931 11.9194 22.0931C17.5361 22.0931 22.0945 17.5233 22.0945 11.9186C22.0945 6.31397 17.5361 1.74419 11.9194 1.74419Z" fill="#1A3E68"/>
<path d="M24.1308 25C23.9098 25 23.6889 24.9186 23.5145 24.7442L21.1887 22.4186C20.8515 22.0814 20.8515 21.5232 21.1887 21.186C21.5259 20.8488 22.0841 20.8488 22.4214 21.186L24.7471 23.5116C25.0843 23.8488 25.0843 24.407 24.7471 24.7442C24.5727 24.9186 24.3517 25 24.1308 25Z" fill="#1A3E68"/>
</svg>
