<svg width="67" height="67" viewBox="0 0 67 67" fill="none" xmlns="http://www.w3.org/2000/svg">
<g clip-path="url(#clip0_937_479)">
<path d="M44.6673 8.375C46.8035 8.37488 48.859 9.19107 50.4133 10.6566C51.9675 12.1221 52.903 14.1261 53.0284 16.2587L53.0423 16.75V44.6667H55.1361C56.9423 44.6667 58.4302 46.0402 58.6089 47.7989L58.6256 48.1562V53.0417C58.6258 55.1779 57.8096 57.2334 56.3441 58.7876C54.8786 60.3419 52.8745 61.2774 50.742 61.4027L50.2506 61.4167H22.334C20.1978 61.4168 18.1423 60.6006 16.588 59.1351C15.0338 57.6696 14.0983 55.6655 13.9729 53.533L13.959 53.0417V25.125H9.07357C8.20966 25.1254 7.37632 24.8053 6.73481 24.2267C6.09329 23.6481 5.6892 22.8521 5.60073 21.9927L5.58398 21.6354V16.75C5.58387 14.6138 6.40006 12.5583 7.86557 11.004C9.33108 9.44977 11.3351 8.51428 13.4677 8.38896L13.959 8.375H44.6673ZM53.0423 50.25H27.9173V53.0417C27.9173 54.0187 27.7498 54.9595 27.4427 55.8333H50.2506C50.991 55.8333 51.7011 55.5392 52.2247 55.0157C52.7482 54.4921 53.0423 53.7821 53.0423 53.0417V50.25ZM33.5006 33.5H27.9173C27.2058 33.5008 26.5214 33.7732 26.004 34.2617C25.4866 34.7502 25.1752 35.4177 25.1335 36.1281C25.0918 36.8384 25.3229 37.5378 25.7796 38.0834C26.2363 38.6291 26.8841 38.9798 27.5907 39.0638L27.9173 39.0833H33.5006C34.2122 39.0825 34.8966 38.8101 35.414 38.3216C35.9314 37.8332 36.2427 37.1656 36.2844 36.4553C36.3261 35.745 36.095 35.0455 35.6383 34.4999C35.1816 33.9542 34.5338 33.6036 33.8273 33.5195L33.5006 33.5ZM39.084 22.3333H27.9173C27.1769 22.3333 26.4669 22.6275 25.9433 23.151C25.4198 23.6745 25.1257 24.3846 25.1257 25.125C25.1257 25.8654 25.4198 26.5755 25.9433 27.099C26.4669 27.6225 27.1769 27.9167 27.9173 27.9167H39.084C39.8244 27.9167 40.5345 27.6225 41.058 27.099C41.5815 26.5755 41.8756 25.8654 41.8756 25.125C41.8756 24.3846 41.5815 23.6745 41.058 23.151C40.5345 22.6275 39.8244 22.3333 39.084 22.3333ZM13.959 13.9583C13.2186 13.9583 12.5085 14.2525 11.985 14.776C11.4614 15.2995 11.1673 16.0096 11.1673 16.75V19.5417H13.959V13.9583Z" fill="#1A3E68"/>
</g>
<defs>
<clipPath id="clip0_937_479">
<rect width="67" height="67" fill="white"/>
</clipPath>
</defs>
</svg>
